ISO-10303-21;
HEADER;
/* Generated by software containing ST-Developer
 * from STEP Tools, Inc. (www.steptools.com) 
 */
/* OPTION: using custom renumber hook */

FILE_DESCRIPTION(
/* description */ ('STEP AP242 Edition 2',
'CAx-IF Rec.Pracs.---Representation and Presentation of Product Manufa
cturing Information (PMI)---4.0---2014-10-13',
'CAx-IF Rec.Pracs.---3D Tessellated Geometry---0.4---2014-09-14','2;1',
'CAx-IF Rec.Pracs.---User Defined Attributes---1.5---2016-08-15'),
/* implementation_level */ '2;1');

FILE_NAME(
/* name */ 'Part Studio 1 - Front Plate',
/* time_stamp */ '2026-07-29T00:54:50Z',
/* author */ (''),
/* organization */ (''),
/* preprocessor_version */ 'ST-DEVELOPER v20',
/* originating_system */ 'ONSHAPE BY PTC INC, 1.218',
/* authorisation */ '  ');

FILE_SCHEMA (('AP242_MANAGED_MODEL_BASED_3D_ENGINEERING_MIM_LF { 1 0 10303 442 3 1 4 }'));
ENDSEC;

DATA;
#10=SHAPE_REPRESENTATION_RELATIONSHIP('','',#427,#11);
#11=ADVANCED_BREP_SHAPE_REPRESENTATION('',(#425),#1155);
#12=B_SPLINE_SURFACE_WITH_KNOTS('',3,3,((#758,#759,#760,#761,#762,#763,
#764,#765,#766,#767,#768),(#769,#770,#771,#772,#773,#774,#775,#776,#777,
#778,#779),(#780,#781,#782,#783,#784,#785,#786,#787,#788,#789,#790),(#791,
#792,#793,#794,#795,#796,#797,#798,#799,#800,#801),(#802,#803,#804,#805,
#806,#807,#808,#809,#810,#811,#812),(#813,#814,#815,#816,#817,#818,#819,
#820,#821,#822,#823),(#824,#825,#826,#827,#828,#829,#830,#831,#832,#833,
#834),(#835,#836,#837,#838,#839,#840,#841,#842,#843,#844,#845),(#846,#847,
#848,#849,#850,#851,#852,#853,#854,#855,#856),(#857,#858,#859,#860,#861,
#862,#863,#864,#865,#866,#867),(#868,#869,#870,#871,#872,#873,#874,#875,
#876,#877,#878),(#879,#880,#881,#882,#883,#884,#885,#886,#887,#888,#889),
(#890,#891,#892,#893,#894,#895,#896,#897,#898,#899,#900),(#901,#902,#903,
#904,#905,#906,#907,#908,#909,#910,#911),(#912,#913,#914,#915,#916,#917,
#918,#919,#920,#921,#922),(#923,#924,#925,#926,#927,#928,#929,#930,#931,
#932,#933),(#934,#935,#936,#937,#938,#939,#940,#941,#942,#943,#944),(#945,
#946,#947,#948,#949,#950,#951,#952,#953,#954,#955)),.UNSPECIFIED.,.F.,.T.,
 .F.,(4,2,2,2,2,2,2,2,4),(4,1,1,1,1,1,1,1,4),(0.,0.125,0.25,0.375,0.5,0.625,
0.75,0.875,1.),(0.785398163397449,1.5707963267949,2.35619449019235,3.1415926535898,
3.92699081698724,4.71238898038469,5.49778714378214,6.28318530717959,7.06858347057704),
 .UNSPECIFIED.);
#13=B_SPLINE_SURFACE_WITH_KNOTS('',3,3,((#956,#957,#958,#959,#960,#961,
#962,#963,#964,#965,#966),(#967,#968,#969,#970,#971,#972,#973,#974,#975,
#976,#977),(#978,#979,#980,#981,#982,#983,#984,#985,#986,#987,#988),(#989,
#990,#991,#992,#993,#994,#995,#996,#997,#998,#999),(#1000,#1001,#1002,#1003,
#1004,#1005,#1006,#1007,#1008,#1009,#1010),(#1011,#1012,#1013,#1014,#1015,
#1016,#1017,#1018,#1019,#1020,#1021),(#1022,#1023,#1024,#1025,#1026,#1027,
#1028,#1029,#1030,#1031,#1032),(#1033,#1034,#1035,#1036,#1037,#1038,#1039,
#1040,#1041,#1042,#1043),(#1044,#1045,#1046,#1047,#1048,#1049,#1050,#1051,
#1052,#1053,#1054),(#1055,#1056,#1057,#1058,#1059,#1060,#1061,#1062,#1063,
#1064,#1065),(#1066,#1067,#1068,#1069,#1070,#1071,#1072,#1073,#1074,#1075,
#1076),(#1077,#1078,#1079,#1080,#1081,#1082,#1083,#1084,#1085,#1086,#1087),
(#1088,#1089,#1090,#1091,#1092,#1093,#1094,#1095,#1096,#1097,#1098),(#1099,
#1100,#1101,#1102,#1103,#1104,#1105,#1106,#1107,#1108,#1109),(#1110,#1111,
#1112,#1113,#1114,#1115,#1116,#1117,#1118,#1119,#1120),(#1121,#1122,#1123,
#1124,#1125,#1126,#1127,#1128,#1129,#1130,#1131),(#1132,#1133,#1134,#1135,
#1136,#1137,#1138,#1139,#1140,#1141,#1142),(#1143,#1144,#1145,#1146,#1147,
#1148,#1149,#1150,#1151,#1152,#1153)),.UNSPECIFIED.,.F.,.T.,.F.,(4,2,2,
2,2,2,2,2,4),(4,1,1,1,1,1,1,1,4),(0.,0.125,0.25,0.375,0.5,0.625,0.75,0.875,
1.),(3.92699081698724,4.71238898038469,5.49778714378214,6.28318530717959,
7.06858347057703,7.85398163397448,8.63937979737193,9.42477796076937,10.2101761241668),
 .UNSPECIFIED.);
#14=CYLINDRICAL_SURFACE('',#454,0.023456);
#15=CYLINDRICAL_SURFACE('',#455,0.016456);
#16=CYLINDRICAL_SURFACE('',#456,0.0015445273064865);
#17=CYLINDRICAL_SURFACE('',#457,0.001);
#18=CYLINDRICAL_SURFACE('',#458,0.001);
#19=CYLINDRICAL_SURFACE('',#459,0.0015445273064865);
#20=CYLINDRICAL_SURFACE('',#460,0.001);
#21=CYLINDRICAL_SURFACE('',#462,0.002);
#22=CYLINDRICAL_SURFACE('',#465,0.001);
#23=CYLINDRICAL_SURFACE('',#467,0.002);
#24=CYLINDRICAL_SURFACE('',#470,0.001);
#25=CYLINDRICAL_SURFACE('',#472,0.002);
#26=CYLINDRICAL_SURFACE('',#475,0.001);
#27=CYLINDRICAL_SURFACE('',#477,0.002);
#28=B_SPLINE_CURVE_WITH_KNOTS('',3,(#625,#626,#627,#628,#629,#630,#631,
#632,#633,#634,#635,#636,#637,#638,#639,#640,#641,#642,#643),
 .UNSPECIFIED.,.T.,.F.,(1,1,1,1,1,1,1,1,1,1,1,1,1,1,1,1,1,1,1,1,1,1,1),
(-0.190789473684211,-0.128289473684211,-0.0657894736842105,0.,0.059375,
0.12171875,0.1842109375,0.246710546875,0.30921052734375,0.371710526367187,
0.434210526318359,0.496710526315918,0.559210526315796,0.62171052631579,
0.684210526315789,0.746710526315789,0.809210526315789,0.871710526315789,
0.934210526315789,1.,1.059375,1.12171875,1.1842109375),.UNSPECIFIED.);
#29=B_SPLINE_CURVE_WITH_KNOTS('',3,(#645,#646,#647,#648,#649,#650,#651,
#652,#653,#654,#655,#656,#657,#658,#659,#660,#661,#662,#663),
 .UNSPECIFIED.,.T.,.F.,(1,1,1,1,1,1,1,1,1,1,1,1,1,1,1,1,1,1,1,1,1,1,1),
(-0.190789473684211,-0.128289473684211,-0.0657894736842105,0.,0.059375,
0.12171875,0.1842109375,0.246710546875,0.30921052734375,0.371710526367187,
0.434210526318359,0.496710526315918,0.559210526315796,0.62171052631579,
0.684210526315789,0.746710526315789,0.809210526315789,0.871710526315789,
0.934210526315789,1.,1.059375,1.12171875,1.1842109375),.UNSPECIFIED.);
#30=B_SPLINE_CURVE_WITH_KNOTS('',3,(#703,#704,#705,#706,#707,#708,#709,
#710,#711,#712,#713),.UNSPECIFIED.,.T.,.F.,(1,1,1,1,1,1,1,1,1,1,1,1,1,1,
1),(-0.375,-0.25,-0.125,0.,0.125,0.25,0.375,0.5,0.625,0.75,0.875,1.,1.125,
1.25,1.375),.UNSPECIFIED.);
#31=B_SPLINE_CURVE_WITH_KNOTS('',3,(#718,#719,#720,#721,#722,#723,#724,
#725,#726,#727,#728),.UNSPECIFIED.,.T.,.F.,(1,1,1,1,1,1,1,1,1,1,1,1,1,1,
1),(-0.375,-0.25,-0.125,0.,0.125,0.25,0.375,0.5,0.625,0.75,0.875,1.,1.125,
1.25,1.375),.UNSPECIFIED.);
#32=LINE('',#608,#44);
#33=LINE('',#611,#45);
#34=LINE('',#613,#46);
#35=LINE('',#615,#47);
#36=LINE('',#674,#48);
#37=LINE('',#677,#49);
#38=LINE('',#678,#50);
#39=LINE('',#680,#51);
#40=LINE('',#682,#52);
#41=LINE('',#684,#53);
#42=LINE('',#686,#54);
#43=LINE('',#688,#55);
#44=VECTOR('',#494,1.);
#45=VECTOR('',#495,1.);
#46=VECTOR('',#496,1.);
#47=VECTOR('',#497,1.);
#48=VECTOR('',#518,1.);
#49=VECTOR('',#519,1.);
#50=VECTOR('',#520,1.);
#51=VECTOR('',#523,1.);
#52=VECTOR('',#524,1.);
#53=VECTOR('',#527,1.);
#54=VECTOR('',#528,1.);
#55=VECTOR('',#531,1.);
#56=ORIENTED_EDGE('',*,*,#140,.F.);
#57=ORIENTED_EDGE('',*,*,#141,.T.);
#58=ORIENTED_EDGE('',*,*,#142,.T.);
#59=ORIENTED_EDGE('',*,*,#143,.T.);
#60=ORIENTED_EDGE('',*,*,#144,.F.);
#61=ORIENTED_EDGE('',*,*,#145,.T.);
#62=ORIENTED_EDGE('',*,*,#146,.T.);
#63=ORIENTED_EDGE('',*,*,#147,.F.);
#64=ORIENTED_EDGE('',*,*,#148,.F.);
#65=ORIENTED_EDGE('',*,*,#149,.T.);
#66=ORIENTED_EDGE('',*,*,#150,.F.);
#67=ORIENTED_EDGE('',*,*,#151,.T.);
#68=ORIENTED_EDGE('',*,*,#152,.T.);
#69=ORIENTED_EDGE('',*,*,#153,.T.);
#70=ORIENTED_EDGE('',*,*,#154,.T.);
#71=ORIENTED_EDGE('',*,*,#155,.T.);
#72=ORIENTED_EDGE('',*,*,#156,.T.);
#73=ORIENTED_EDGE('',*,*,#157,.F.);
#74=ORIENTED_EDGE('',*,*,#158,.F.);
#75=ORIENTED_EDGE('',*,*,#159,.T.);
#76=ORIENTED_EDGE('',*,*,#160,.F.);
#77=ORIENTED_EDGE('',*,*,#145,.F.);
#78=ORIENTED_EDGE('',*,*,#161,.T.);
#79=ORIENTED_EDGE('',*,*,#162,.F.);
#80=ORIENTED_EDGE('',*,*,#161,.F.);
#81=ORIENTED_EDGE('',*,*,#148,.T.);
#82=ORIENTED_EDGE('',*,*,#163,.T.);
#83=ORIENTED_EDGE('',*,*,#164,.F.);
#84=ORIENTED_EDGE('',*,*,#163,.F.);
#85=ORIENTED_EDGE('',*,*,#147,.T.);
#86=ORIENTED_EDGE('',*,*,#165,.T.);
#87=ORIENTED_EDGE('',*,*,#166,.T.);
#88=ORIENTED_EDGE('',*,*,#165,.F.);
#89=ORIENTED_EDGE('',*,*,#146,.F.);
#90=ORIENTED_EDGE('',*,*,#160,.T.);
#91=ORIENTED_EDGE('',*,*,#167,.T.);
#92=ORIENTED_EDGE('',*,*,#168,.T.);
#93=ORIENTED_EDGE('',*,*,#169,.T.);
#94=ORIENTED_EDGE('',*,*,#170,.T.);
#95=ORIENTED_EDGE('',*,*,#171,.T.);
#96=ORIENTED_EDGE('',*,*,#159,.F.);
#97=ORIENTED_EDGE('',*,*,#162,.T.);
#98=ORIENTED_EDGE('',*,*,#164,.T.);
#99=ORIENTED_EDGE('',*,*,#166,.F.);
#100=ORIENTED_EDGE('',*,*,#171,.F.);
#101=ORIENTED_EDGE('',*,*,#156,.F.);
#102=ORIENTED_EDGE('',*,*,#155,.F.);
#103=ORIENTED_EDGE('',*,*,#144,.T.);
#104=ORIENTED_EDGE('',*,*,#172,.T.);
#105=ORIENTED_EDGE('',*,*,#143,.F.);
#106=ORIENTED_EDGE('',*,*,#157,.T.);
#107=ORIENTED_EDGE('',*,*,#142,.F.);
#108=ORIENTED_EDGE('',*,*,#158,.T.);
#109=ORIENTED_EDGE('',*,*,#149,.F.);
#110=ORIENTED_EDGE('',*,*,#173,.T.);
#111=ORIENTED_EDGE('',*,*,#141,.F.);
#112=ORIENTED_EDGE('',*,*,#140,.T.);
#113=ORIENTED_EDGE('',*,*,#174,.F.);
#114=ORIENTED_EDGE('',*,*,#170,.F.);
#115=ORIENTED_EDGE('',*,*,#175,.T.);
#116=ORIENTED_EDGE('',*,*,#174,.T.);
#117=ORIENTED_EDGE('',*,*,#175,.F.);
#118=ORIENTED_EDGE('',*,*,#150,.T.);
#119=ORIENTED_EDGE('',*,*,#176,.F.);
#120=ORIENTED_EDGE('',*,*,#169,.F.);
#121=ORIENTED_EDGE('',*,*,#177,.T.);
#122=ORIENTED_EDGE('',*,*,#176,.T.);
#123=ORIENTED_EDGE('',*,*,#177,.F.);
#124=ORIENTED_EDGE('',*,*,#151,.F.);
#125=ORIENTED_EDGE('',*,*,#178,.T.);
#126=ORIENTED_EDGE('',*,*,#168,.F.);
#127=ORIENTED_EDGE('',*,*,#179,.F.);
#128=ORIENTED_EDGE('',*,*,#178,.F.);
#129=ORIENTED_EDGE('',*,*,#179,.T.);
#130=ORIENTED_EDGE('',*,*,#152,.F.);
#131=ORIENTED_EDGE('',*,*,#180,.T.);
#132=ORIENTED_EDGE('',*,*,#167,.F.);
#133=ORIENTED_EDGE('',*,*,#181,.F.);
#134=ORIENTED_EDGE('',*,*,#180,.F.);
#135=ORIENTED_EDGE('',*,*,#181,.T.);
#136=ORIENTED_EDGE('',*,*,#153,.F.);
#137=ORIENTED_EDGE('',*,*,#173,.F.);
#138=ORIENTED_EDGE('',*,*,#154,.F.);
#139=ORIENTED_EDGE('',*,*,#172,.F.);
#140=EDGE_CURVE('',#182,#182,#220,.F.);
#141=EDGE_CURVE('',#183,#183,#221,.T.);
#142=EDGE_CURVE('',#184,#184,#222,.T.);
#143=EDGE_CURVE('',#185,#185,#223,.T.);
#144=EDGE_CURVE('',#186,#186,#224,.F.);
#145=EDGE_CURVE('',#187,#188,#32,.T.);
#146=EDGE_CURVE('',#188,#189,#33,.T.);
#147=EDGE_CURVE('',#190,#189,#34,.T.);
#148=EDGE_CURVE('',#187,#190,#35,.T.);
#149=EDGE_CURVE('',#191,#191,#225,.T.);
#150=EDGE_CURVE('',#192,#192,#226,.F.);
#151=EDGE_CURVE('',#193,#193,#227,.F.);
#152=EDGE_CURVE('',#194,#194,#228,.F.);
#153=EDGE_CURVE('',#195,#195,#28,.T.);
#154=EDGE_CURVE('',#196,#196,#29,.T.);
#155=EDGE_CURVE('',#197,#197,#229,.F.);
#156=EDGE_CURVE('',#198,#198,#230,.T.);
#157=EDGE_CURVE('',#199,#199,#231,.T.);
#158=EDGE_CURVE('',#200,#200,#232,.T.);
#159=EDGE_CURVE('',#201,#202,#36,.T.);
#160=EDGE_CURVE('',#188,#202,#37,.T.);
#161=EDGE_CURVE('',#187,#201,#38,.T.);
#162=EDGE_CURVE('',#201,#203,#39,.T.);
#163=EDGE_CURVE('',#190,#203,#40,.T.);
#164=EDGE_CURVE('',#203,#204,#41,.T.);
#165=EDGE_CURVE('',#189,#204,#42,.T.);
#166=EDGE_CURVE('',#202,#204,#43,.T.);
#167=EDGE_CURVE('',#205,#205,#233,.F.);
#168=EDGE_CURVE('',#206,#206,#234,.F.);
#169=EDGE_CURVE('',#207,#207,#235,.F.);
#170=EDGE_CURVE('',#208,#208,#236,.F.);
#171=EDGE_CURVE('',#209,#209,#237,.F.);
#172=EDGE_CURVE('',#210,#210,#30,.T.);
#173=EDGE_CURVE('',#211,#211,#31,.T.);
#174=EDGE_CURVE('',#212,#212,#238,.T.);
#175=EDGE_CURVE('',#213,#213,#239,.T.);
#176=EDGE_CURVE('',#214,#214,#240,.T.);
#177=EDGE_CURVE('',#215,#215,#241,.T.);
#178=EDGE_CURVE('',#216,#216,#242,.T.);
#179=EDGE_CURVE('',#217,#217,#243,.T.);
#180=EDGE_CURVE('',#218,#218,#244,.T.);
#181=EDGE_CURVE('',#219,#219,#245,.T.);
#182=VERTEX_POINT('',#599);
#183=VERTEX_POINT('',#601);
#184=VERTEX_POINT('',#603);
#185=VERTEX_POINT('',#605);
#186=VERTEX_POINT('',#607);
#187=VERTEX_POINT('',#609);
#188=VERTEX_POINT('',#610);
#189=VERTEX_POINT('',#612);
#190=VERTEX_POINT('',#614);
#191=VERTEX_POINT('',#617);
#192=VERTEX_POINT('',#619);
#193=VERTEX_POINT('',#621);
#194=VERTEX_POINT('',#623);
#195=VERTEX_POINT('',#644);
#196=VERTEX_POINT('',#664);
#197=VERTEX_POINT('',#666);
#198=VERTEX_POINT('',#668);
#199=VERTEX_POINT('',#670);
#200=VERTEX_POINT('',#672);
#201=VERTEX_POINT('',#675);
#202=VERTEX_POINT('',#676);
#203=VERTEX_POINT('',#681);
#204=VERTEX_POINT('',#685);
#205=VERTEX_POINT('',#691);
#206=VERTEX_POINT('',#693);
#207=VERTEX_POINT('',#695);
#208=VERTEX_POINT('',#697);
#209=VERTEX_POINT('',#699);
#210=VERTEX_POINT('',#714);
#211=VERTEX_POINT('',#729);
#212=VERTEX_POINT('',#732);
#213=VERTEX_POINT('',#735);
#214=VERTEX_POINT('',#739);
#215=VERTEX_POINT('',#742);
#216=VERTEX_POINT('',#746);
#217=VERTEX_POINT('',#749);
#218=VERTEX_POINT('',#753);
#219=VERTEX_POINT('',#756);
#220=CIRCLE('',#430,0.001);
#221=CIRCLE('',#431,0.0015445273064865);
#222=CIRCLE('',#432,0.001);
#223=CIRCLE('',#433,0.0015445273064865);
#224=CIRCLE('',#434,0.016456);
#225=CIRCLE('',#435,0.001);
#226=CIRCLE('',#436,0.001);
#227=CIRCLE('',#437,0.001);
#228=CIRCLE('',#438,0.001);
#229=CIRCLE('',#440,0.016456);
#230=CIRCLE('',#441,0.023456);
#231=CIRCLE('',#442,0.001);
#232=CIRCLE('',#443,0.001);
#233=CIRCLE('',#449,0.002);
#234=CIRCLE('',#450,0.002);
#235=CIRCLE('',#451,0.002);
#236=CIRCLE('',#452,0.002);
#237=CIRCLE('',#453,0.023456);
#238=CIRCLE('',#461,0.001);
#239=CIRCLE('',#463,0.002);
#240=CIRCLE('',#466,0.001);
#241=CIRCLE('',#468,0.002);
#242=CIRCLE('',#471,0.001);
#243=CIRCLE('',#473,0.002);
#244=CIRCLE('',#476,0.001);
#245=CIRCLE('',#478,0.002);
#246=EDGE_LOOP('',(#56));
#247=EDGE_LOOP('',(#57));
#248=EDGE_LOOP('',(#58));
#249=EDGE_LOOP('',(#59));
#250=EDGE_LOOP('',(#60));
#251=EDGE_LOOP('',(#61,#62,#63,#64));
#252=EDGE_LOOP('',(#65));
#253=EDGE_LOOP('',(#66));
#254=EDGE_LOOP('',(#67));
#255=EDGE_LOOP('',(#68));
#256=EDGE_LOOP('',(#69));
#257=EDGE_LOOP('',(#70));
#258=EDGE_LOOP('',(#71));
#259=EDGE_LOOP('',(#72));
#260=EDGE_LOOP('',(#73));
#261=EDGE_LOOP('',(#74));
#262=EDGE_LOOP('',(#75,#76,#77,#78));
#263=EDGE_LOOP('',(#79,#80,#81,#82));
#264=EDGE_LOOP('',(#83,#84,#85,#86));
#265=EDGE_LOOP('',(#87,#88,#89,#90));
#266=EDGE_LOOP('',(#91));
#267=EDGE_LOOP('',(#92));
#268=EDGE_LOOP('',(#93));
#269=EDGE_LOOP('',(#94));
#270=EDGE_LOOP('',(#95));
#271=EDGE_LOOP('',(#96,#97,#98,#99));
#272=EDGE_LOOP('',(#100));
#273=EDGE_LOOP('',(#101));
#274=EDGE_LOOP('',(#102));
#275=EDGE_LOOP('',(#103));
#276=EDGE_LOOP('',(#104));
#277=EDGE_LOOP('',(#105));
#278=EDGE_LOOP('',(#106));
#279=EDGE_LOOP('',(#107));
#280=EDGE_LOOP('',(#108));
#281=EDGE_LOOP('',(#109));
#282=EDGE_LOOP('',(#110));
#283=EDGE_LOOP('',(#111));
#284=EDGE_LOOP('',(#112));
#285=EDGE_LOOP('',(#113));
#286=EDGE_LOOP('',(#114));
#287=EDGE_LOOP('',(#115));
#288=EDGE_LOOP('',(#116));
#289=EDGE_LOOP('',(#117));
#290=EDGE_LOOP('',(#118));
#291=EDGE_LOOP('',(#119));
#292=EDGE_LOOP('',(#120));
#293=EDGE_LOOP('',(#121));
#294=EDGE_LOOP('',(#122));
#295=EDGE_LOOP('',(#123));
#296=EDGE_LOOP('',(#124));
#297=EDGE_LOOP('',(#125));
#298=EDGE_LOOP('',(#126));
#299=EDGE_LOOP('',(#127));
#300=EDGE_LOOP('',(#128));
#301=EDGE_LOOP('',(#129));
#302=EDGE_LOOP('',(#130));
#303=EDGE_LOOP('',(#131));
#304=EDGE_LOOP('',(#132));
#305=EDGE_LOOP('',(#133));
#306=EDGE_LOOP('',(#134));
#307=EDGE_LOOP('',(#135));
#308=EDGE_LOOP('',(#136));
#309=EDGE_LOOP('',(#137));
#310=EDGE_LOOP('',(#138));
#311=EDGE_LOOP('',(#139));
#312=FACE_BOUND('',#246,.T.);
#313=FACE_BOUND('',#247,.T.);
#314=FACE_BOUND('',#248,.T.);
#315=FACE_BOUND('',#249,.T.);
#316=FACE_BOUND('',#250,.T.);
#317=FACE_BOUND('',#251,.T.);
#318=FACE_BOUND('',#252,.T.);
#319=FACE_BOUND('',#253,.T.);
#320=FACE_BOUND('',#254,.T.);
#321=FACE_BOUND('',#255,.T.);
#322=FACE_BOUND('',#256,.T.);
#323=FACE_BOUND('',#257,.T.);
#324=FACE_BOUND('',#258,.T.);
#325=FACE_BOUND('',#259,.T.);
#326=FACE_BOUND('',#260,.T.);
#327=FACE_BOUND('',#261,.T.);
#328=FACE_BOUND('',#262,.T.);
#329=FACE_BOUND('',#263,.T.);
#330=FACE_BOUND('',#264,.T.);
#331=FACE_BOUND('',#265,.T.);
#332=FACE_BOUND('',#266,.T.);
#333=FACE_BOUND('',#267,.T.);
#334=FACE_BOUND('',#268,.T.);
#335=FACE_BOUND('',#269,.T.);
#336=FACE_BOUND('',#270,.T.);
#337=FACE_BOUND('',#271,.T.);
#338=FACE_BOUND('',#272,.T.);
#339=FACE_BOUND('',#273,.T.);
#340=FACE_BOUND('',#274,.T.);
#341=FACE_BOUND('',#275,.T.);
#342=FACE_BOUND('',#276,.T.);
#343=FACE_BOUND('',#277,.T.);
#344=FACE_BOUND('',#278,.T.);
#345=FACE_BOUND('',#279,.T.);
#346=FACE_BOUND('',#280,.T.);
#347=FACE_BOUND('',#281,.T.);
#348=FACE_BOUND('',#282,.T.);
#349=FACE_BOUND('',#283,.T.);
#350=FACE_BOUND('',#284,.T.);
#351=FACE_BOUND('',#285,.T.);
#352=FACE_BOUND('',#286,.T.);
#353=FACE_BOUND('',#287,.T.);
#354=FACE_BOUND('',#288,.T.);
#355=FACE_BOUND('',#289,.T.);
#356=FACE_BOUND('',#290,.T.);
#357=FACE_BOUND('',#291,.T.);
#358=FACE_BOUND('',#292,.T.);
#359=FACE_BOUND('',#293,.T.);
#360=FACE_BOUND('',#294,.T.);
#361=FACE_BOUND('',#295,.T.);
#362=FACE_BOUND('',#296,.T.);
#363=FACE_BOUND('',#297,.T.);
#364=FACE_BOUND('',#298,.T.);
#365=FACE_BOUND('',#299,.T.);
#366=FACE_BOUND('',#300,.T.);
#367=FACE_BOUND('',#301,.T.);
#368=FACE_BOUND('',#302,.T.);
#369=FACE_BOUND('',#303,.T.);
#370=FACE_BOUND('',#304,.T.);
#371=FACE_BOUND('',#305,.T.);
#372=FACE_BOUND('',#306,.T.);
#373=FACE_BOUND('',#307,.T.);
#374=FACE_BOUND('',#308,.T.);
#375=FACE_BOUND('',#309,.T.);
#376=FACE_BOUND('',#310,.T.);
#377=FACE_BOUND('',#311,.T.);
#378=PLANE('',#429);
#379=PLANE('',#439);
#380=PLANE('',#444);
#381=PLANE('',#445);
#382=PLANE('',#446);
#383=PLANE('',#447);
#384=PLANE('',#448);
#385=PLANE('',#464);
#386=PLANE('',#469);
#387=PLANE('',#474);
#388=PLANE('',#479);
#389=ADVANCED_FACE('',(#312,#313,#314,#315,#316,#317,#318,#319,#320,#321),
#378,.F.);
#390=ADVANCED_FACE('',(#322,#323,#324,#325,#326,#327),#379,.T.);
#391=ADVANCED_FACE('',(#328),#380,.F.);
#392=ADVANCED_FACE('',(#329),#381,.T.);
#393=ADVANCED_FACE('',(#330),#382,.T.);
#394=ADVANCED_FACE('',(#331),#383,.F.);
#395=ADVANCED_FACE('',(#332,#333,#334,#335,#336,#337),#384,.T.);
#396=ADVANCED_FACE('',(#338,#339),#14,.F.);
#397=ADVANCED_FACE('',(#340,#341),#15,.F.);
#398=ADVANCED_FACE('',(#342,#343),#16,.F.);
#399=ADVANCED_FACE('',(#344,#345),#17,.F.);
#400=ADVANCED_FACE('',(#346,#347),#18,.F.);
#401=ADVANCED_FACE('',(#348,#349),#19,.F.);
#402=ADVANCED_FACE('',(#350,#351),#20,.F.);
#403=ADVANCED_FACE('',(#352,#353),#21,.F.);
#404=ADVANCED_FACE('',(#354,#355),#385,.T.);
#405=ADVANCED_FACE('',(#356,#357),#22,.F.);
#406=ADVANCED_FACE('',(#358,#359),#23,.F.);
#407=ADVANCED_FACE('',(#360,#361),#386,.T.);
#408=ADVANCED_FACE('',(#362,#363),#24,.F.);
#409=ADVANCED_FACE('',(#364,#365),#25,.F.);
#410=ADVANCED_FACE('',(#366,#367),#387,.T.);
#411=ADVANCED_FACE('',(#368,#369),#26,.F.);
#412=ADVANCED_FACE('',(#370,#371),#27,.F.);
#413=ADVANCED_FACE('',(#372,#373),#388,.T.);
#414=ADVANCED_FACE('',(#374,#375),#12,.T.);
#415=ADVANCED_FACE('',(#376,#377),#13,.T.);
#416=CLOSED_SHELL('',(#389,#390,#391,#392,#393,#394,#395,#396,#397,#398,
#399,#400,#401,#402,#403,#404,#405,#406,#407,#408,#409,#410,#411,#412,#413,
#414,#415));
#417=STYLED_ITEM('',(#418),#425);
#418=PRESENTATION_STYLE_ASSIGNMENT((#419));
#419=SURFACE_STYLE_USAGE(.BOTH.,#420);
#420=SURFACE_SIDE_STYLE('',(#421));
#421=SURFACE_STYLE_FILL_AREA(#422);
#422=FILL_AREA_STYLE('',(#423));
#423=FILL_AREA_STYLE_COLOUR('',#424);
#424=COLOUR_RGB('',0.917647058823529,0.917647058823529,0.917647058823529);
#425=MANIFOLD_SOLID_BREP('Front Plate',#416);
#426=SHAPE_DEFINITION_REPRESENTATION(#1160,#427);
#427=SHAPE_REPRESENTATION('Front Plate',(#428),#1155);
#428=AXIS2_PLACEMENT_3D('',#596,#480,#481);
#429=AXIS2_PLACEMENT_3D('',#597,#482,#483);
#430=AXIS2_PLACEMENT_3D('',#598,#484,#485);
#431=AXIS2_PLACEMENT_3D('',#600,#486,#487);
#432=AXIS2_PLACEMENT_3D('',#602,#488,#489);
#433=AXIS2_PLACEMENT_3D('',#604,#490,#491);
#434=AXIS2_PLACEMENT_3D('',#606,#492,#493);
#435=AXIS2_PLACEMENT_3D('',#616,#498,#499);
#436=AXIS2_PLACEMENT_3D('',#618,#500,#501);
#437=AXIS2_PLACEMENT_3D('',#620,#502,#503);
#438=AXIS2_PLACEMENT_3D('',#622,#504,#505);
#439=AXIS2_PLACEMENT_3D('',#624,#506,#507);
#440=AXIS2_PLACEMENT_3D('',#665,#508,#509);
#441=AXIS2_PLACEMENT_3D('',#667,#510,#511);
#442=AXIS2_PLACEMENT_3D('',#669,#512,#513);
#443=AXIS2_PLACEMENT_3D('',#671,#514,#515);
#444=AXIS2_PLACEMENT_3D('',#673,#516,#517);
#445=AXIS2_PLACEMENT_3D('',#679,#521,#522);
#446=AXIS2_PLACEMENT_3D('',#683,#525,#526);
#447=AXIS2_PLACEMENT_3D('',#687,#529,#530);
#448=AXIS2_PLACEMENT_3D('',#689,#532,#533);
#449=AXIS2_PLACEMENT_3D('',#690,#534,#535);
#450=AXIS2_PLACEMENT_3D('',#692,#536,#537);
#451=AXIS2_PLACEMENT_3D('',#694,#538,#539);
#452=AXIS2_PLACEMENT_3D('',#696,#540,#541);
#453=AXIS2_PLACEMENT_3D('',#698,#542,#543);
#454=AXIS2_PLACEMENT_3D('',#700,#544,#545);
#455=AXIS2_PLACEMENT_3D('',#701,#546,#547);
#456=AXIS2_PLACEMENT_3D('',#702,#548,#549);
#457=AXIS2_PLACEMENT_3D('',#715,#550,#551);
#458=AXIS2_PLACEMENT_3D('',#716,#552,#553);
#459=AXIS2_PLACEMENT_3D('',#717,#554,#555);
#460=AXIS2_PLACEMENT_3D('',#730,#556,#557);
#461=AXIS2_PLACEMENT_3D('',#731,#558,#559);
#462=AXIS2_PLACEMENT_3D('',#733,#560,#561);
#463=AXIS2_PLACEMENT_3D('',#734,#562,#563);
#464=AXIS2_PLACEMENT_3D('',#736,#564,#565);
#465=AXIS2_PLACEMENT_3D('',#737,#566,#567);
#466=AXIS2_PLACEMENT_3D('',#738,#568,#569);
#467=AXIS2_PLACEMENT_3D('',#740,#570,#571);
#468=AXIS2_PLACEMENT_3D('',#741,#572,#573);
#469=AXIS2_PLACEMENT_3D('',#743,#574,#575);
#470=AXIS2_PLACEMENT_3D('',#744,#576,#577);
#471=AXIS2_PLACEMENT_3D('',#745,#578,#579);
#472=AXIS2_PLACEMENT_3D('',#747,#580,#581);
#473=AXIS2_PLACEMENT_3D('',#748,#582,#583);
#474=AXIS2_PLACEMENT_3D('',#750,#584,#585);
#475=AXIS2_PLACEMENT_3D('',#751,#586,#587);
#476=AXIS2_PLACEMENT_3D('',#752,#588,#589);
#477=AXIS2_PLACEMENT_3D('',#754,#590,#591);
#478=AXIS2_PLACEMENT_3D('',#755,#592,#593);
#479=AXIS2_PLACEMENT_3D('',#757,#594,#595);
#480=DIRECTION('',(0.,0.,1.));
#481=DIRECTION('',(1.,0.,0.));
#482=DIRECTION('',(1.08673789965299E-16,-0.939692620785909,0.342020143325668));
#483=DIRECTION('',(1.,7.60942069395212E-17,-1.08673789965299E-16));
#484=DIRECTION('',(1.08673789965299E-16,-0.939692620785909,0.342020143325668));
#485=DIRECTION('',(-1.,-7.60942069395212E-17,1.08673789965299E-16));
#486=DIRECTION('',(1.08673789965299E-16,-0.939692620785909,0.342020143325668));
#487=DIRECTION('',(0.707106781186547,0.241844762647975,0.664463024388675));
#488=DIRECTION('',(1.08673789965299E-16,-0.939692620785909,0.342020143325668));
#489=DIRECTION('',(1.,7.60942069395212E-17,-1.08673789965299E-16));
#490=DIRECTION('',(1.08673789965299E-16,-0.939692620785909,0.342020143325668));
#491=DIRECTION('',(-0.707106781186547,-0.241844762647975,-0.664463024388675));
#492=DIRECTION('',(1.08673789965299E-16,-0.939692620785909,0.342020143325668));
#493=DIRECTION('',(1.,7.60942069395212E-17,-1.08673789965299E-16));
#494=DIRECTION('',(-1.,-1.15648231731787E-16,0.));
#495=DIRECTION('',(7.60942069395212E-17,0.342020143325668,0.939692620785909));
#496=DIRECTION('',(-1.,-1.15648231731787E-16,0.));
#497=DIRECTION('',(7.60942069395212E-17,0.342020143325668,0.939692620785909));
#498=DIRECTION('',(1.08673789965299E-16,-0.939692620785909,0.342020143325668));
#499=DIRECTION('',(1.,7.60942069395212E-17,-1.08673789965299E-16));
#500=DIRECTION('',(1.08673789965299E-16,-0.939692620785909,0.342020143325668));
#501=DIRECTION('',(1.,7.60942069395212E-17,-1.08673789965299E-16));
#502=DIRECTION('',(-1.08673789965299E-16,0.939692620785909,-0.342020143325668));
#503=DIRECTION('',(1.,7.60942069395212E-17,-1.08673789965299E-16));
#504=DIRECTION('',(-1.08673789965299E-16,0.939692620785909,-0.342020143325668));
#505=DIRECTION('',(-1.,-7.60942069395212E-17,1.08673789965299E-16));
#506=DIRECTION('',(1.08673789965299E-16,-0.939692620785909,0.342020143325668));
#507=DIRECTION('',(1.,7.60942069395212E-17,-1.08673789965299E-16));
#508=DIRECTION('',(1.08673789965299E-16,-0.939692620785909,0.342020143325668));
#509=DIRECTION('',(1.,7.60942069395212E-17,-1.08673789965299E-16));
#510=DIRECTION('',(1.08673789965299E-16,-0.939692620785909,0.342020143325668));
#511=DIRECTION('',(1.,7.60942069395212E-17,-1.08673789965299E-16));
#512=DIRECTION('',(1.08673789965299E-16,-0.939692620785909,0.342020143325668));
#513=DIRECTION('',(1.,7.60942069395212E-17,-1.08673789965299E-16));
#514=DIRECTION('',(1.08673789965299E-16,-0.939692620785909,0.342020143325668));
#515=DIRECTION('',(1.,7.60942069395212E-17,-1.08673789965299E-16));
#516=DIRECTION('',(-3.95540247922659E-17,0.342020143325668,0.939692620785909));
#517=DIRECTION('',(-1.,-1.15648231731787E-16,0.));
#518=DIRECTION('',(-1.,-1.15648231731787E-16,0.));
#519=DIRECTION('',(1.08673789965299E-16,-0.939692620785909,0.342020143325668));
#520=DIRECTION('',(1.08673789965299E-16,-0.939692620785909,0.342020143325668));
#521=DIRECTION('',(1.,7.60942069395212E-17,-1.08673789965299E-16));
#522=DIRECTION('',(-1.08673789965299E-16,0.939692620785909,-0.342020143325668));
#523=DIRECTION('',(7.60942069395212E-17,0.342020143325668,0.939692620785909));
#524=DIRECTION('',(1.08673789965299E-16,-0.939692620785909,0.342020143325668));
#525=DIRECTION('',(-3.95540247922659E-17,0.342020143325668,0.939692620785909));
#526=DIRECTION('',(-1.,-1.15648231731787E-16,0.));
#527=DIRECTION('',(-1.,-1.15648231731787E-16,0.));
#528=DIRECTION('',(1.08673789965299E-16,-0.939692620785909,0.342020143325668));
#529=DIRECTION('',(1.,7.60942069395212E-17,-1.08673789965299E-16));
#530=DIRECTION('',(-1.08673789965299E-16,0.939692620785909,-0.342020143325668));
#531=DIRECTION('',(7.60942069395212E-17,0.342020143325668,0.939692620785909));
#532=DIRECTION('',(1.08673789965299E-16,-0.939692620785909,0.342020143325668));
#533=DIRECTION('',(1.,7.60942069395212E-17,-1.08673789965299E-16));
#534=DIRECTION('',(1.08673789965299E-16,-0.939692620785909,0.342020143325668));
#535=DIRECTION('',(1.,7.60942069395212E-17,-1.08673789965299E-16));
#536=DIRECTION('',(1.08673789965299E-16,-0.939692620785909,0.342020143325668));
#537=DIRECTION('',(1.,7.60942069395212E-17,-1.08673789965299E-16));
#538=DIRECTION('',(1.08673789965299E-16,-0.939692620785909,0.342020143325668));
#539=DIRECTION('',(1.,7.60942069395212E-17,-1.08673789965299E-16));
#540=DIRECTION('',(1.08673789965299E-16,-0.939692620785909,0.342020143325668));
#541=DIRECTION('',(1.,7.60942069395212E-17,-1.08673789965299E-16));
#542=DIRECTION('',(1.08673789965299E-16,-0.939692620785909,0.342020143325668));
#543=DIRECTION('',(1.,7.60942069395212E-17,-1.08673789965299E-16));
#544=DIRECTION('',(-1.08673789965299E-16,0.939692620785909,-0.342020143325668));
#545=DIRECTION('',(-1.,-7.60942069395212E-17,1.08673789965299E-16));
#546=DIRECTION('',(-1.08673789965299E-16,0.939692620785909,-0.342020143325668));
#547=DIRECTION('',(-1.,-7.60942069395212E-17,1.08673789965299E-16));
#548=DIRECTION('',(1.08673789965299E-16,-0.939692620785909,0.342020143325668));
#549=DIRECTION('',(0.707106781186547,0.241844762647975,0.664463024388675));
#550=DIRECTION('',(1.08673789965299E-16,-0.939692620785909,0.342020143325668));
#551=DIRECTION('',(0.707106781186547,-0.241844762647975,-0.664463024388675));
#552=DIRECTION('',(1.08673789965299E-16,-0.939692620785909,0.342020143325668));
#553=DIRECTION('',(-0.707106781186547,0.241844762647975,0.664463024388675));
#554=DIRECTION('',(1.08673789965299E-16,-0.939692620785909,0.342020143325668));
#555=DIRECTION('',(-0.707106781186547,-0.241844762647975,-0.664463024388675));
#556=DIRECTION('',(1.08673789965299E-16,-0.939692620785909,0.342020143325668));
#557=DIRECTION('',(1.,7.60942069395212E-17,-1.08673789965299E-16));
#558=DIRECTION('',(-1.08673789965299E-16,0.939692620785909,-0.342020143325668));
#559=DIRECTION('',(1.,7.60942069395212E-17,-1.08673789965299E-16));
#560=DIRECTION('',(-1.08673789965299E-16,0.939692620785909,-0.342020143325668));
#561=DIRECTION('',(-1.,-7.60942069395212E-17,1.08673789965299E-16));
#562=DIRECTION('',(-1.08673789965299E-16,0.939692620785909,-0.342020143325668));
#563=DIRECTION('',(1.,7.60942069395212E-17,-1.08673789965299E-16));
#564=DIRECTION('',(1.08673789965299E-16,-0.939692620785909,0.342020143325668));
#565=DIRECTION('',(1.,7.60942069395212E-17,-1.08673789965299E-16));
#566=DIRECTION('',(1.08673789965299E-16,-0.939692620785909,0.342020143325668));
#567=DIRECTION('',(-1.,-7.60942069395212E-17,1.08673789965299E-16));
#568=DIRECTION('',(-1.08673789965299E-16,0.939692620785909,-0.342020143325668));
#569=DIRECTION('',(-1.,-7.60942069395212E-17,1.08673789965299E-16));
#570=DIRECTION('',(-1.08673789965299E-16,0.939692620785909,-0.342020143325668));
#571=DIRECTION('',(1.,7.60942069395212E-17,-1.08673789965299E-16));
#572=DIRECTION('',(-1.08673789965299E-16,0.939692620785909,-0.342020143325668));
#573=DIRECTION('',(-1.,-7.60942069395212E-17,1.08673789965299E-16));
#574=DIRECTION('',(1.08673789965299E-16,-0.939692620785909,0.342020143325668));
#575=DIRECTION('',(-1.,-7.60942069395212E-17,1.08673789965299E-16));
#576=DIRECTION('',(1.08673789965299E-16,-0.939692620785909,0.342020143325668));
#577=DIRECTION('',(-1.,-7.60942069395212E-17,1.08673789965299E-16));
#578=DIRECTION('',(1.08673789965299E-16,-0.939692620785909,0.342020143325668));
#579=DIRECTION('',(-1.,-7.60942069395212E-17,1.08673789965299E-16));
#580=DIRECTION('',(-1.08673789965299E-16,0.939692620785909,-0.342020143325668));
#581=DIRECTION('',(1.,7.60942069395212E-17,-1.08673789965299E-16));
#582=DIRECTION('',(1.08673789965299E-16,-0.939692620785909,0.342020143325668));
#583=DIRECTION('',(-1.,-7.60942069395212E-17,1.08673789965299E-16));
#584=DIRECTION('',(1.08673789965299E-16,-0.939692620785909,0.342020143325668));
#585=DIRECTION('',(-1.,-7.60942069395212E-17,1.08673789965299E-16));
#586=DIRECTION('',(1.08673789965299E-16,-0.939692620785909,0.342020143325668));
#587=DIRECTION('',(1.,7.60942069395212E-17,-1.08673789965299E-16));
#588=DIRECTION('',(1.08673789965299E-16,-0.939692620785909,0.342020143325668));
#589=DIRECTION('',(1.,7.60942069395212E-17,-1.08673789965299E-16));
#590=DIRECTION('',(-1.08673789965299E-16,0.939692620785909,-0.342020143325668));
#591=DIRECTION('',(-1.,-7.60942069395212E-17,1.08673789965299E-16));
#592=DIRECTION('',(1.08673789965299E-16,-0.939692620785909,0.342020143325668));
#593=DIRECTION('',(1.,7.60942069395212E-17,-1.08673789965299E-16));
#594=DIRECTION('',(1.08673789965299E-16,-0.939692620785909,0.342020143325668));
#595=DIRECTION('',(1.,7.60942069395212E-17,-1.08673789965299E-16));
#596=CARTESIAN_POINT('',(0.,0.,0.));
#597=CARTESIAN_POINT('',(1.63067069857478E-18,-0.0141002648648935,0.0226372651613336));
#598=CARTESIAN_POINT('',(0.025,-0.0209406677314069,0.00384341274561537));
#599=CARTESIAN_POINT('',(0.024,-0.0209406677314069,0.00384341274561537));
#600=CARTESIAN_POINT('',(0.0143684097937107,-0.0190145504419004,0.00913537650575568));
#601=CARTESIAN_POINT('',(0.0154605555258551,-0.0186410146020598,0.0101616577910746));
#602=CARTESIAN_POINT('',(-0.0143684097937107,-0.0190145504419004,0.00913537650575568));
#603=CARTESIAN_POINT('',(-0.0133684097937107,-0.0190145504419004,0.00913537650575568));
#604=CARTESIAN_POINT('',(-0.0143684097937107,-0.00918597928788667,0.0361391538169114));
#605=CARTESIAN_POINT('',(-0.0154605555258551,-0.00955951512772721,0.0351128725315925));
#606=CARTESIAN_POINT('',(1.63067069857478E-18,-0.0141002648648935,0.0226372651613336));
#607=CARTESIAN_POINT('',(0.016456,-0.0141002648648935,0.0226372651613335));
#608=CARTESIAN_POINT('',(-2.71684474913248E-19,-0.0226507684480352,-0.00085505035831417));
#609=CARTESIAN_POINT('',(0.03,-0.0226507684480352,-0.00085505035831417));
#610=CARTESIAN_POINT('',(-0.03,-0.0226507684480352,-0.00085505035831417));
#611=CARTESIAN_POINT('',(-0.03,-0.0141002648648935,0.0226372651613336));
#612=CARTESIAN_POINT('',(-0.03,-0.00554976128175181,0.0461295806809813));
#613=CARTESIAN_POINT('',(3.53302587206281E-18,-0.00554976128175181,0.0461295806809813));
#614=CARTESIAN_POINT('',(0.03,-0.00554976128175181,0.0461295806809813));
#615=CARTESIAN_POINT('',(0.03,-0.0141002648648935,0.0226372651613336));
#616=CARTESIAN_POINT('',(0.0143684097937107,-0.00918597928788667,0.0361391538169114));
#617=CARTESIAN_POINT('',(0.0153684097937107,-0.00918597928788667,0.0361391538169114));
#618=CARTESIAN_POINT('',(-0.025,-0.00725986199838015,0.0414311175770517));
#619=CARTESIAN_POINT('',(-0.024,-0.00725986199838015,0.0414311175770517));
#620=CARTESIAN_POINT('',(-0.025,-0.0209406677314069,0.00384341274561538));
#621=CARTESIAN_POINT('',(-0.024,-0.0209406677314069,0.00384341274561538));
#622=CARTESIAN_POINT('',(0.025,-0.00725986199838015,0.0414311175770517));
#623=CARTESIAN_POINT('',(0.024,-0.00725986199838015,0.0414311175770517));
#624=CARTESIAN_POINT('',(1.84801827850538E-18,-0.0159796501064653,0.0233213054479849));
#625=CARTESIAN_POINT('',(0.0151413951575408,-0.0202275413966137,0.0116503200480043));
#626=CARTESIAN_POINT('',(0.0158345012338124,-0.0203797081764499,0.0112322452564132));
#627=CARTESIAN_POINT('',(0.0162879958844671,-0.0206107420166599,0.0105974849973064));
#628=CARTESIAN_POINT('',(0.0164676465768713,-0.0208797288464893,0.00985844975621937));
#629=CARTESIAN_POINT('',(0.0163193300887008,-0.0211534846083551,0.00910631198204756));
#630=CARTESIAN_POINT('',(0.0158827395405294,-0.0213914388730637,0.00845253801289784));
#631=CARTESIAN_POINT('',(0.0152113646120753,-0.0215492793861676,0.0080188747672696));
#632=CARTESIAN_POINT('',(0.014410642494567,-0.0216119569099182,0.0078466696860575));
#633=CARTESIAN_POINT('',(0.0136095847165893,-0.0215611977451602,0.00798612934506059));
#634=CARTESIAN_POINT('',(0.0129138054164979,-0.0214118671600227,0.0083964117557597));
#635=CARTESIAN_POINT('',(0.0124523139730347,-0.0211822433230743,0.00902729806274413));
#636=CARTESIAN_POINT('',(0.012269055781379,-0.0209083801267457,0.00977973101067645));
#637=CARTESIAN_POINT('',(0.0124174666437383,-0.0206344021125398,0.0105324794181343));
#638=CARTESIAN_POINT('',(0.0128540774450974,-0.0203964321160733,0.0111862966099337));
#639=CARTESIAN_POINT('',(0.0135254621201923,-0.0202385907049236,0.0116199623229224));
#640=CARTESIAN_POINT('',(0.0143261491983875,-0.0201759203384493,0.0117921477396792));
#641=CARTESIAN_POINT('',(0.0151413951575408,-0.0202275413966137,0.0116503200480043));
#642=CARTESIAN_POINT('',(0.0158345012338124,-0.0203797081764499,0.0112322452564132));
#643=CARTESIAN_POINT('',(0.0162879958844671,-0.0206107420166599,0.0105974849973064));
#644=CARTESIAN_POINT('',(0.0158141089164483,-0.0203994774623076,0.0111779295899203));
#645=CARTESIAN_POINT('',(-0.01514139515754,-0.011731758816317,0.0349922908479654));
#646=CARTESIAN_POINT('',(-0.0158345012338126,-0.0115795920364808,0.0354103656395566));
#647=CARTESIAN_POINT('',(-0.0162879958844669,-0.0113485581962708,0.0360451258986633));
#648=CARTESIAN_POINT('',(-0.0164676465768714,-0.0110795713664414,0.0367841611397505));
#649=CARTESIAN_POINT('',(-0.0163193300887007,-0.0108058156045758,0.0375362989139218));
#650=CARTESIAN_POINT('',(-0.0158827395405296,-0.0105678613398669,0.0381900728830723));
#651=CARTESIAN_POINT('',(-0.0152113646120748,-0.010410020826763,0.0386237361287004));
#652=CARTESIAN_POINT('',(-0.0144106424945667,-0.0103473433030124,0.0387959412099125));
#653=CARTESIAN_POINT('',(-0.0136095847165893,-0.0103981024677706,0.0386564815509089));
#654=CARTESIAN_POINT('',(-0.0129138054164983,-0.0105474330529078,0.0382461991402105));
#655=CARTESIAN_POINT('',(-0.0124523139730344,-0.0107770568898565,0.0376153128332255));
#656=CARTESIAN_POINT('',(-0.0122690557813794,-0.0110509200861848,0.0368628798852937));
#657=CARTESIAN_POINT('',(-0.0124174666437379,-0.0113248981003909,0.0361101314778356));
#658=CARTESIAN_POINT('',(-0.0128540774450978,-0.0115628680968575,0.035456314286036));
#659=CARTESIAN_POINT('',(-0.0135254621201921,-0.0117207095080071,0.0350226485730474));
#660=CARTESIAN_POINT('',(-0.0143261491983877,-0.0117833798744813,0.0348504631562907));
#661=CARTESIAN_POINT('',(-0.01514139515754,-0.011731758816317,0.0349922908479654));
#662=CARTESIAN_POINT('',(-0.0158345012338126,-0.0115795920364808,0.0354103656395566));
#663=CARTESIAN_POINT('',(-0.0162879958844669,-0.0113485581962708,0.0360451258986633));
#664=CARTESIAN_POINT('',(-0.0158141089164483,-0.011559822750623,0.0354646813060495));
#665=CARTESIAN_POINT('',(1.84801827850538E-18,-0.0159796501064653,0.0233213054479849));
#666=CARTESIAN_POINT('',(0.016456,-0.0159796501064653,0.0233213054479849));
#667=CARTESIAN_POINT('',(1.84801827850538E-18,-0.0159796501064653,0.0233213054479849));
#668=CARTESIAN_POINT('',(0.023456,-0.0159796501064653,0.0233213054479849));
#669=CARTESIAN_POINT('',(-0.0143684097937107,-0.0208939356834722,0.00981941679240702));
#670=CARTESIAN_POINT('',(-0.0133684097937107,-0.0208939356834722,0.00981941679240702));
#671=CARTESIAN_POINT('',(0.0143684097937107,-0.0110653645294585,0.0368231941035627));
#672=CARTESIAN_POINT('',(0.0153684097937107,-0.0110653645294585,0.0368231941035627));
#673=CARTESIAN_POINT('',(-2.71684474913248E-19,-0.0226507684480352,-0.00085505035831417));
#674=CARTESIAN_POINT('',(0.,-0.025,0.));
#675=CARTESIAN_POINT('',(0.03,-0.025,0.));
#676=CARTESIAN_POINT('',(-0.03,-0.025,0.));
#677=CARTESIAN_POINT('',(-0.03,-0.0226507684480352,-0.00085505035831417));
#678=CARTESIAN_POINT('',(0.03,-0.0226507684480352,-0.00085505035831417));
#679=CARTESIAN_POINT('',(0.03,-0.0141002648648935,0.0226372651613336));
#680=CARTESIAN_POINT('',(0.03,-0.0164494964168583,0.0234923155196477));
#681=CARTESIAN_POINT('',(0.03,-0.00789899283371658,0.0469846310392954));
#682=CARTESIAN_POINT('',(0.03,-0.00554976128175181,0.0461295806809813));
#683=CARTESIAN_POINT('',(3.53302587206281E-18,-0.00554976128175181,0.0461295806809813));
#684=CARTESIAN_POINT('',(3.80471034697606E-18,-0.00789899283371658,0.0469846310392954));
#685=CARTESIAN_POINT('',(-0.03,-0.00789899283371658,0.0469846310392954));
#686=CARTESIAN_POINT('',(-0.03,-0.00554976128175181,0.0461295806809813));
#687=CARTESIAN_POINT('',(-0.03,-0.0141002648648935,0.0226372651613336));
#688=CARTESIAN_POINT('',(-0.03,-0.0164494964168583,0.0234923155196477));
#689=CARTESIAN_POINT('',(1.90235517348803E-18,-0.0164494964168583,0.0234923155196477));
#690=CARTESIAN_POINT('',(0.025,-0.00960909355034492,0.0422861679353659));
#691=CARTESIAN_POINT('',(0.027,-0.00960909355034492,0.0422861679353659));
#692=CARTESIAN_POINT('',(-0.025,-0.0232898992833716,0.00469846310392955));
#693=CARTESIAN_POINT('',(-0.023,-0.0232898992833716,0.00469846310392955));
#694=CARTESIAN_POINT('',(-0.025,-0.00960909355034492,0.0422861679353659));
#695=CARTESIAN_POINT('',(-0.023,-0.00960909355034492,0.0422861679353659));
#696=CARTESIAN_POINT('',(0.025,-0.0232898992833716,0.00469846310392954));
#697=CARTESIAN_POINT('',(0.027,-0.0232898992833716,0.00469846310392954));
#698=CARTESIAN_POINT('',(1.90235517348803E-18,-0.0164494964168583,0.0234923155196477));
#699=CARTESIAN_POINT('',(0.023456,-0.0164494964168583,0.0234923155196477));
#700=CARTESIAN_POINT('',(2.28271343836657E-18,-0.0197384205896089,0.0246893860212876));
#701=CARTESIAN_POINT('',(2.98909307314102E-18,-0.0258464226247174,0.0269125169529044));
#702=CARTESIAN_POINT('',(-0.0143684097937107,-0.00918597928788667,0.0361391538169114));
#703=CARTESIAN_POINT('',(-0.016080045977278,-0.0105955182190655,0.0366521840318999));
#704=CARTESIAN_POINT('',(-0.0155787193460354,-0.0110094684656201,0.0355148650767136));
#705=CARTESIAN_POINT('',(-0.0143684097937107,-0.0111809322718906,0.0350437721407315));
#706=CARTESIAN_POINT('',(-0.0131581002413859,-0.0110094684656201,0.0355148650767136));
#707=CARTESIAN_POINT('',(-0.0126567736101433,-0.0105955182190655,0.0366521840318999));
#708=CARTESIAN_POINT('',(-0.0131581002413859,-0.010181567972511,0.0377895029870862));
#709=CARTESIAN_POINT('',(-0.0143684097937107,-0.0100101041662404,0.0382605959230683));
#710=CARTESIAN_POINT('',(-0.0155787193460354,-0.010181567972511,0.0377895029870862));
#711=CARTESIAN_POINT('',(-0.016080045977278,-0.0105955182190655,0.0366521840318999));
#712=CARTESIAN_POINT('',(-0.0155787193460354,-0.0110094684656201,0.0355148650767136));
#713=CARTESIAN_POINT('',(-0.0143684097937107,-0.0111809322718906,0.0350437721407315));
#714=CARTESIAN_POINT('',(-0.0154605555258551,-0.0109690540589061,0.035625902746581));
#715=CARTESIAN_POINT('',(-0.0143684097937107,-0.0208939356834722,0.00981941679240702));
#716=CARTESIAN_POINT('',(0.0143684097937107,-0.0110653645294585,0.0368231941035627));
#717=CARTESIAN_POINT('',(0.0143684097937107,-0.0190145504419004,0.00913537650575568));
#718=CARTESIAN_POINT('',(0.016080045977278,-0.0204240893730792,0.00964840672074418));
#719=CARTESIAN_POINT('',(0.0155787193460354,-0.0200101391265247,0.0107857256759305));
#720=CARTESIAN_POINT('',(0.0143684097937107,-0.0198386753202541,0.0112568186119126));
#721=CARTESIAN_POINT('',(0.0131581002413859,-0.0200101391265247,0.0107857256759304));
#722=CARTESIAN_POINT('',(0.0126567736101433,-0.0204240893730792,0.00964840672074418));
#723=CARTESIAN_POINT('',(0.0131581002413859,-0.0208380396196338,0.00851108776555792));
#724=CARTESIAN_POINT('',(0.0143684097937107,-0.0210095034259043,0.00803999482957577));
#725=CARTESIAN_POINT('',(0.0155787193460354,-0.0208380396196338,0.00851108776555792));
#726=CARTESIAN_POINT('',(0.016080045977278,-0.0204240893730792,0.00964840672074418));
#727=CARTESIAN_POINT('',(0.0155787193460354,-0.0200101391265247,0.0107857256759305));
#728=CARTESIAN_POINT('',(0.0143684097937107,-0.0198386753202541,0.0112568186119126));
#729=CARTESIAN_POINT('',(0.0154605555258551,-0.0200505535332387,0.0106746880060631));
#730=CARTESIAN_POINT('',(0.025,-0.020000975110621,0.0035013926022897));
#731=CARTESIAN_POINT('',(0.025,-0.0223502066625857,0.00435644296060387));
#732=CARTESIAN_POINT('',(0.026,-0.0223502066625857,0.00435644296060387));
#733=CARTESIAN_POINT('',(0.025,-0.0270486697665153,0.00606654367723221));
#734=CARTESIAN_POINT('',(0.025,-0.0223502066625857,0.00435644296060387));
#735=CARTESIAN_POINT('',(0.027,-0.0223502066625857,0.00435644296060387));
#736=CARTESIAN_POINT('',(0.025,-0.0223502066625857,0.00435644296060387));
#737=CARTESIAN_POINT('',(-0.025,-0.00632016937759425,0.0410890974337261));
#738=CARTESIAN_POINT('',(-0.025,-0.00866940092955902,0.0419441477920402));
#739=CARTESIAN_POINT('',(-0.026,-0.00866940092955902,0.0419441477920402));
#740=CARTESIAN_POINT('',(-0.025,-0.0133678640334886,0.0436542485086686));
#741=CARTESIAN_POINT('',(-0.025,-0.00866940092955902,0.0419441477920402));
#742=CARTESIAN_POINT('',(-0.027,-0.00866940092955902,0.0419441477920402));
#743=CARTESIAN_POINT('',(-0.025,-0.00866940092955902,0.0419441477920402));
#744=CARTESIAN_POINT('',(-0.025,-0.020000975110621,0.0035013926022897));
#745=CARTESIAN_POINT('',(-0.025,-0.0223502066625857,0.00435644296060387));
#746=CARTESIAN_POINT('',(-0.026,-0.0223502066625857,0.00435644296060387));
#747=CARTESIAN_POINT('',(-0.025,-0.0270486697665153,0.00606654367723222));
#748=CARTESIAN_POINT('',(-0.025,-0.0223502066625857,0.00435644296060387));
#749=CARTESIAN_POINT('',(-0.027,-0.0223502066625857,0.00435644296060387));
#750=CARTESIAN_POINT('',(-0.025,-0.0223502066625857,0.00435644296060387));
#751=CARTESIAN_POINT('',(0.025,-0.00632016937759424,0.0410890974337261));
#752=CARTESIAN_POINT('',(0.025,-0.00866940092955901,0.0419441477920402));
#753=CARTESIAN_POINT('',(0.026,-0.00866940092955901,0.0419441477920402));
#754=CARTESIAN_POINT('',(0.025,-0.0133678640334886,0.0436542485086686));
#755=CARTESIAN_POINT('',(0.025,-0.00866940092955901,0.0419441477920402));
#756=CARTESIAN_POINT('',(0.027,-0.00866940092955901,0.0419441477920402));
#757=CARTESIAN_POINT('',(0.025,-0.00866940092955901,0.0419441477920402));
#758=CARTESIAN_POINT('',(0.0154605555258551,-0.0200505535332387,0.0106746880060631));
#759=CARTESIAN_POINT('',(0.0151752828285938,-0.0199529845244345,0.0109427566545912));
#760=CARTESIAN_POINT('',(0.0143684097937107,-0.0198386753202541,0.0112568186119126));
#761=CARTESIAN_POINT('',(0.0131581002413859,-0.0200101391265247,0.0107857256759304));
#762=CARTESIAN_POINT('',(0.0126567736101433,-0.0204240893730792,0.00964840672074417));
#763=CARTESIAN_POINT('',(0.0131581002413859,-0.0208380396196338,0.00851108776555792));
#764=CARTESIAN_POINT('',(0.0143684097937106,-0.0210095034259044,0.00803999482957576));
#765=CARTESIAN_POINT('',(0.0155787193460354,-0.0208380396196337,0.00851108776555792));
#766=CARTESIAN_POINT('',(0.016080045977278,-0.0204240893730792,0.00964840672074418));
#767=CARTESIAN_POINT('',(0.0157458282231163,-0.0201481225420429,0.010406619357535));
#768=CARTESIAN_POINT('',(0.0154605555258551,-0.0200505535332387,0.0106746880060631));
#769=CARTESIAN_POINT('',(0.0154605555258551,-0.0200799189276383,0.010685376135542));
#770=CARTESIAN_POINT('',(0.0151752828285938,-0.0199823499188341,0.0109534447840701));
#771=CARTESIAN_POINT('',(0.0143684097937107,-0.0198680407146536,0.0112675067413915));
#772=CARTESIAN_POINT('',(0.0131581002413859,-0.0200395045209243,0.0107964138054094));
#773=CARTESIAN_POINT('',(0.0126567736101433,-0.0204534547674788,0.0096590948502231));
#774=CARTESIAN_POINT('',(0.0131581002413859,-0.0208674050140333,0.00852177589503685));
#775=CARTESIAN_POINT('',(0.0143684097937106,-0.0210388688203039,0.00805068295905468));
#776=CARTESIAN_POINT('',(0.0155787193460354,-0.0208674050140333,0.00852177589503685));
#777=CARTESIAN_POINT('',(0.016080045977278,-0.0204534547674788,0.00965909485022311));
#778=CARTESIAN_POINT('',(0.0157458282231163,-0.0201774879364424,0.0104173074870139));
#779=CARTESIAN_POINT('',(0.0154605555258551,-0.0200799189276383,0.010685376135542));
#780=CARTESIAN_POINT('',(0.0154606897963484,-0.0201094933067619,0.0106962832169145));
#781=CARTESIAN_POINT('',(0.015175382027114,-0.0200119123026364,0.010964384822317));
#782=CARTESIAN_POINT('',(0.0143684097937107,-0.019897589045063,0.0112784853910185));
#783=CARTESIAN_POINT('',(0.0131579514436056,-0.0200690739314232,0.0108073345379662));
#784=CARTESIAN_POINT('',(0.0126565631783043,-0.0204830750698159,0.00966987575860375));
#785=CARTESIAN_POINT('',(0.0131579514436056,-0.0208970762082085,0.00853241697924133));
#786=CARTESIAN_POINT('',(0.0143684097937106,-0.0210685610945687,0.00806126612618906));
#787=CARTESIAN_POINT('',(0.0155788681438157,-0.0208970762082085,0.00853241697924133));
#788=CARTESIAN_POINT('',(0.016080256409117,-0.0204830750698159,0.00966987575860376));
#789=CARTESIAN_POINT('',(0.0157459975655828,-0.0202070743108874,0.010428181611512));
#790=CARTESIAN_POINT('',(0.0154606897963484,-0.0201094933067619,0.0106962832169145));
#791=CARTESIAN_POINT('',(0.0154650823596322,-0.0201694237745746,0.0107227705915347));
#792=CARTESIAN_POINT('',(0.015178627235847,-0.0200714503520813,0.0109919503575419));
#793=CARTESIAN_POINT('',(0.0143684097937107,-0.0199566673477922,0.0113073140699631));
#794=CARTESIAN_POINT('',(0.0131530836305061,-0.0201288418542258,0.0108342685013313));
#795=CARTESIAN_POINT('',(0.0126496790509999,-0.0205445078827524,0.00969223547391991));
#796=CARTESIAN_POINT('',(0.0131530836305061,-0.0209601739112791,0.00855020244650852));
#797=CARTESIAN_POINT('',(0.0143684097937106,-0.0211323484177126,0.0080771568778767));
#798=CARTESIAN_POINT('',(0.0155837359569152,-0.0209601739112791,0.00855020244650852));
#799=CARTESIAN_POINT('',(0.0160871405364215,-0.0205445078827524,0.00969223547391992));
#800=CARTESIAN_POINT('',(0.0157515374834173,-0.020267397197068,0.0104535908255275));
#801=CARTESIAN_POINT('',(0.0154650823596322,-0.0201694237745746,0.0107227705915347));
#802=CARTESIAN_POINT('',(0.0154693022894244,-0.0201996910210068,0.0107382777237955));
#803=CARTESIAN_POINT('',(0.0151817449036255,-0.0201013406027015,0.0110084932772833));
#804=CARTESIAN_POINT('',(0.0143684097937107,-0.0199861159203451,0.0113250704902212));
#805=CARTESIAN_POINT('',(0.0131484071288384,-0.0201589529438797,0.0108502046708143));
#806=CARTESIAN_POINT('',(0.012643065478917,-0.0205762184301769,0.00970377716929473));
#807=CARTESIAN_POINT('',(0.0131484071288384,-0.0209934839164742,0.00855734966777516));
#808=CARTESIAN_POINT('',(0.0143684097937106,-0.0211663209400088,0.00808248384836823));
#809=CARTESIAN_POINT('',(0.0155884124585829,-0.0209934839164742,0.00855734966777516));
#810=CARTESIAN_POINT('',(0.0160937541085043,-0.0205762184301769,0.00970377716929473));
#811=CARTESIAN_POINT('',(0.0157568596752234,-0.0202980414393121,0.0104680621703078));
#812=CARTESIAN_POINT('',(0.0154693022894244,-0.0201996910210068,0.0107382777237955));
#813=CARTESIAN_POINT('',(0.0154831129687445,-0.0202577768062854,0.0107741162386261));
#814=CARTESIAN_POINT('',(0.0151919481799913,-0.0201581925835046,0.0110477216420502));
#815=CARTESIAN_POINT('',(0.0143684097937107,-0.0200415224092914,0.0113682703112247));
#816=CARTESIAN_POINT('',(0.0131331022142898,-0.0202165276706112,0.0108874473074629));
#817=CARTESIAN_POINT('',(0.0126214210611914,-0.020639027745976,0.00972663789068021));
#818=CARTESIAN_POINT('',(0.0131331022142898,-0.0210615278213408,0.00856582847389751));
#819=CARTESIAN_POINT('',(0.0143684097937106,-0.0212365330826606,0.00808500547013569));
#820=CARTESIAN_POINT('',(0.0156037173731316,-0.0210615278213408,0.00856582847389751));
#821=CARTESIAN_POINT('',(0.01611539852623,-0.020639027745976,0.00972663789068022));
#822=CARTESIAN_POINT('',(0.0157742777574977,-0.0203573610290661,0.010500510835202));
#823=CARTESIAN_POINT('',(0.0154831129687445,-0.0202577768062854,0.0107741162386261));
#824=CARTESIAN_POINT('',(0.0154926653552742,-0.0202855065028749,0.0107943744602089));
#825=CARTESIAN_POINT('',(0.0151990054461442,-0.0201850688986653,0.011070324509839));
#826=CARTESIAN_POINT('',(0.0143684097937107,-0.0200673989259178,0.0113936201029105));
#827=CARTESIAN_POINT('',(0.0131225163150603,-0.020243903885039,0.0109086767133032));
#828=CARTESIAN_POINT('',(0.0126064503389311,-0.0206700245511755,0.00973791980513019));
#829=CARTESIAN_POINT('',(0.0131225163150603,-0.0210961452173121,0.00856716289695715));
#830=CARTESIAN_POINT('',(0.0143684097937106,-0.0212726501764333,0.00808221950734987));
#831=CARTESIAN_POINT('',(0.0156143032723611,-0.021096145217312,0.00856716289695716));
#832=CARTESIAN_POINT('',(0.0161303692484902,-0.0206700245511755,0.00973791980513019));
#833=CARTESIAN_POINT('',(0.0157863252644041,-0.0203859441070845,0.0105184244105789));
#834=CARTESIAN_POINT('',(0.0154926653552742,-0.0202855065028749,0.0107943744602089));
#835=CARTESIAN_POINT('',(0.0155170066775758,-0.0203345355662692,0.0108381230740444));
#836=CARTESIAN_POINT('',(0.0152169887207389,-0.0202319233816716,0.0111200477341873));
#837=CARTESIAN_POINT('',(0.0143684097937106,-0.0201117057295265,0.0114503430188758));
#838=CARTESIAN_POINT('',(0.0130955414031683,-0.0202920322077442,0.010954900091843));
#839=CARTESIAN_POINT('',(0.0125683020526896,-0.0207273788371122,0.00975879505801872));
#840=CARTESIAN_POINT('',(0.0130955414031683,-0.0211627254664802,0.00856269002419441));
#841=CARTESIAN_POINT('',(0.0143684097937106,-0.0213430519446979,0.00806724709716164));
#842=CARTESIAN_POINT('',(0.0156412781842531,-0.0211627254664802,0.00856269002419442));
#843=CARTESIAN_POINT('',(0.0161685175347317,-0.0207273788371122,0.00975879505801872));
#844=CARTESIAN_POINT('',(0.0158170246344126,-0.0204371477508668,0.0105561984139016));
#845=CARTESIAN_POINT('',(0.0155170066775758,-0.0203345355662692,0.0108381230740444));
#846=CARTESIAN_POINT('',(0.0155317572503495,-0.0203557460908171,0.0108615403053102));
#847=CARTESIAN_POINT('',(0.0152278863867463,-0.020251816134495,0.01114708551351));
#848=CARTESIAN_POINT('',(0.0143684097937106,-0.0201300546167417,0.0114816225340957));
#849=CARTESIAN_POINT('',(0.0130791949041573,-0.0203126968933717,0.0109798170032172));
#850=CARTESIAN_POINT('',(0.0125451846120909,-0.0207536343546743,0.00976835128489658));
#851=CARTESIAN_POINT('',(0.0130791949041573,-0.0211945718159769,0.00855688556657596));
#852=CARTESIAN_POINT('',(0.0143684097937106,-0.0213772140926068,0.00805508003569747));
#853=CARTESIAN_POINT('',(0.0156576246832641,-0.0211945718159769,0.00855688556657596));
#854=CARTESIAN_POINT('',(0.0161916349753304,-0.0207536343546743,0.00976835128489658));
#855=CARTESIAN_POINT('',(0.0158356281139528,-0.0204596760471392,0.0105759950971103));
#856=CARTESIAN_POINT('',(0.0155317572503495,-0.0203557460908171,0.0108615403053102));
#857=CARTESIAN_POINT('',(0.0155661304966572,-0.0203896692505877,0.0109104665704074));
#858=CARTESIAN_POINT('',(0.0152532812079233,-0.0202826684920156,0.0112044487384488));
#859=CARTESIAN_POINT('',(0.0143684097937106,-0.0201573093056409,0.0115488702723344));
#860=CARTESIAN_POINT('',(0.0130411026723917,-0.0203453480852029,0.011032237971506));
#861=CARTESIAN_POINT('',(0.012491314061307,-0.0207993138570736,0.00978497726408602));
#862=CARTESIAN_POINT('',(0.0130411026723917,-0.0212532796289443,0.00853771655666605));
#863=CARTESIAN_POINT('',(0.0143684097937106,-0.0214413184085063,0.00802108425583761));
#864=CARTESIAN_POINT('',(0.0156957169150296,-0.0212532796289443,0.00853771655666605));
#865=CARTESIAN_POINT('',(0.0162455055261143,-0.0207993138570736,0.00978497726408602));
#866=CARTESIAN_POINT('',(0.0158789797853912,-0.0204966700091598,0.010616484402366));
#867=CARTESIAN_POINT('',(0.0155661304966572,-0.0203896692505877,0.0109104665704074));
#868=CARTESIAN_POINT('',(0.0155858874406845,-0.0204025143981533,0.0109361667224619));
#869=CARTESIAN_POINT('',(0.0152678775616132,-0.0202937486137343,0.0112349982591623));
#870=CARTESIAN_POINT('',(0.0143684097937107,-0.0201663215709534,0.0115851011818308));
#871=CARTESIAN_POINT('',(0.0130192081418569,-0.0203574621351248,0.011059946797828));
#872=CARTESIAN_POINT('',(0.0124603505192828,-0.0208189162774671,0.00979211196162881));
#873=CARTESIAN_POINT('',(0.0130192081418569,-0.0212803704198093,0.00852427712542964));
#874=CARTESIAN_POINT('',(0.0143684097937106,-0.0214715109839807,0.00799912274142684));
#875=CARTESIAN_POINT('',(0.0157176114455645,-0.0212803704198093,0.00852427712542965));
#876=CARTESIAN_POINT('',(0.0162764690681385,-0.0208189162774671,0.00979211196162881));
#877=CARTESIAN_POINT('',(0.0159038973197558,-0.0205112801825722,0.0106373351857616));
#878=CARTESIAN_POINT('',(0.0155858874406845,-0.0204025143981533,0.0109361667224619));
#879=CARTESIAN_POINT('',(0.0156290458135597,-0.0204201011825451,0.010988495969607));
#880=CARTESIAN_POINT('',(0.0152997628002562,-0.0203074797591403,0.0112979207873584));
#881=CARTESIAN_POINT('',(0.0143684097937107,-0.0201755355543068,0.0116604345107662));
#882=CARTESIAN_POINT('',(0.0129713802838923,-0.0203734518615571,0.0111166639256544));
#883=CARTESIAN_POINT('',(0.0123927117138901,-0.0208512640947353,0.00980388560425794));
#884=CARTESIAN_POINT('',(0.0129713802838923,-0.0213290763279136,0.00849110728286149));
#885=CARTESIAN_POINT('',(0.0143684097937106,-0.0215269926351638,0.00794733669774966));
#886=CARTESIAN_POINT('',(0.015765439303529,-0.0213290763279136,0.00849110728286149));
#887=CARTESIAN_POINT('',(0.0163441078735312,-0.0208512640947353,0.00980388560425795));
#888=CARTESIAN_POINT('',(0.0159583288268631,-0.0205327226059498,0.0106790711518556));
#889=CARTESIAN_POINT('',(0.0156290458135597,-0.0204201011825451,0.010988495969607));
#890=CARTESIAN_POINT('',(0.0156523705164113,-0.02042481807962,0.0110150344100647));
#891=CARTESIAN_POINT('',(0.0153169950003407,-0.0203101128975456,0.0113301843077085));
#892=CARTESIAN_POINT('',(0.0143684097937107,-0.0201757274175762,0.0116994053794271));
#893=CARTESIAN_POINT('',(0.0129455319837657,-0.0203773056375303,0.0111455737718493));
#894=CARTESIAN_POINT('',(0.0123561566972867,-0.0208639585100227,0.00980850599356394));
#895=CARTESIAN_POINT('',(0.0129455319837657,-0.0213506113825149,0.00847143821527863));
#896=CARTESIAN_POINT('',(0.0143684097937106,-0.0215521896024691,0.00791760660770077));
#897=CARTESIAN_POINT('',(0.0157912876036556,-0.0213506113825149,0.00847143821527864));
#898=CARTESIAN_POINT('',(0.0163806628901346,-0.0208639585100226,0.00980850599356394));
#899=CARTESIAN_POINT('',(0.015987746032482,-0.0205395232616944,0.0106998845124208));
#900=CARTESIAN_POINT('',(0.0156523705164113,-0.02042481807962,0.0110150344100647));
#901=CARTESIAN_POINT('',(0.0156996337300844,-0.0204270064800053,0.0110661273841122));
#902=CARTESIAN_POINT('',(0.0153519128794591,-0.0203080789448371,0.0113928781015382));
#903=CARTESIAN_POINT('',(0.0143684097937107,-0.0201687466705132,0.0117756903790442));
#904=CARTESIAN_POINT('',(0.012893155165088,-0.020377745081999,0.0112014719627852));
#905=CARTESIAN_POINT('',(0.0122820846899589,-0.0208823118815224,0.00981518607448827));
#906=CARTESIAN_POINT('',(0.0128931551650881,-0.0213868786810457,0.00842890018619136));
#907=CARTESIAN_POINT('',(0.0143684097937106,-0.0215958770925315,0.00785468176993231));
#908=CARTESIAN_POINT('',(0.0158436644223333,-0.0213868786810457,0.00842890018619136));
#909=CARTESIAN_POINT('',(0.0164547348974625,-0.0208823118815224,0.00981518607448827));
#910=CARTESIAN_POINT('',(0.0160473545807097,-0.0205459340151735,0.0107393766666862));
#911=CARTESIAN_POINT('',(0.0156996337300844,-0.0204270064800053,0.0110661273841122));
#912=CARTESIAN_POINT('',(0.0157234955149096,-0.0204244532435643,0.0110905912630692));
#913=CARTESIAN_POINT('',(0.0153695418736244,-0.0203033939684413,0.0114231988878852));
#914=CARTESIAN_POINT('',(0.0143684097937107,-0.0201615642054092,0.0118128729592222));
#915=CARTESIAN_POINT('',(0.0128667116738401,-0.0203743088499573,0.0112283618522167));
#916=CARTESIAN_POINT('',(0.0122446879459995,-0.0208879198561473,0.00981722721032626));
#917=CARTESIAN_POINT('',(0.0128667116738401,-0.0214015308623373,0.00840609256843582));
#918=CARTESIAN_POINT('',(0.0143684097937106,-0.0216142755068853,0.00782158146143028));
#919=CARTESIAN_POINT('',(0.0158701079135812,-0.0214015308623373,0.00840609256843583));
#920=CARTESIAN_POINT('',(0.0164921316414218,-0.0208879198561473,0.00981722721032626));
#921=CARTESIAN_POINT('',(0.0160774491561948,-0.0205455125186873,0.0107579836382532));
#922=CARTESIAN_POINT('',(0.0157234955149096,-0.0204244532435643,0.0110905912630692));
#923=CARTESIAN_POINT('',(0.0157697229276336,-0.0204144799290075,0.0111361554585336));
#924=CARTESIAN_POINT('',(0.0154036945070154,-0.0202892908361263,0.0114801096643865));
#925=CARTESIAN_POINT('',(0.0143684097937107,-0.0201426226906292,0.0118830770822932));
#926=CARTESIAN_POINT('',(0.0128154827237536,-0.0203626249088749,0.0112786259554331));
#927=CARTESIAN_POINT('',(0.0121722392700011,-0.020893757247916,0.0098193518471758));
#928=CARTESIAN_POINT('',(0.0128154827237536,-0.021424889586957,0.00836007773891849));
#929=CARTESIAN_POINT('',(0.0143684097937106,-0.0216448918052027,0.0077556266120584));
#930=CARTESIAN_POINT('',(0.0159213368636677,-0.021424889586957,0.0083600777389185));
#931=CARTESIAN_POINT('',(0.0165645803174202,-0.0208937572479159,0.00981935184717581));
#932=CARTESIAN_POINT('',(0.0161357513482519,-0.0205396690218886,0.0107922012526807));
#933=CARTESIAN_POINT('',(0.0157697229276336,-0.0204144799290075,0.0111361554585336));
#934=CARTESIAN_POINT('',(0.0157920118295363,-0.0204070351111404,0.0111571651204081));
#935=CARTESIAN_POINT('',(0.0154201614613724,-0.0202798547949253,0.0115065901674083));
#936=CARTESIAN_POINT('',(0.0143684097937107,-0.0201308537861814,0.0119159670744079));
#937=CARTESIAN_POINT('',(0.0127907822922181,-0.0203543552992972,0.0113019017139084));
#938=CARTESIAN_POINT('',(0.0121373075847272,-0.0208939356834722,0.00981941679240701));
#939=CARTESIAN_POINT('',(0.0127907822922182,-0.0214335160676472,0.00833693187090559));
#940=CARTESIAN_POINT('',(0.0143684097937106,-0.0216570175807629,0.00772286651040608));
#941=CARTESIAN_POINT('',(0.0159460372952032,-0.0214335160676472,0.0083369318709056));
#942=CARTESIAN_POINT('',(0.0165995120026942,-0.0208939356834722,0.00981941679240702));
#943=CARTESIAN_POINT('',(0.0161638621977002,-0.0205342154273555,0.010807740073408));
#944=CARTESIAN_POINT('',(0.0157920118295363,-0.0204070351111404,0.0111571651204081));
#945=CARTESIAN_POINT('',(0.0158141089164484,-0.0203994774623076,0.0111779295899203));
#946=CARTESIAN_POINT('',(0.0154364867035576,-0.0202703230589318,0.0115327783968186));
#947=CARTESIAN_POINT('',(0.0143684097937107,-0.020119009263217,0.0119485096337968));
#948=CARTESIAN_POINT('',(0.0127662944289403,-0.0203459799567892,0.0113249127783294));
#949=CARTESIAN_POINT('',(0.0121026765163661,-0.0208939356834722,0.00981941679240701));
#950=CARTESIAN_POINT('',(0.0127662944289403,-0.0214418914101552,0.00831392080648458));
#951=CARTESIAN_POINT('',(0.0143684097937106,-0.0216688621037273,0.00769032395101725));
#952=CARTESIAN_POINT('',(0.0159705251584811,-0.0214418914101552,0.00831392080648459));
#953=CARTESIAN_POINT('',(0.0166341430710552,-0.0208939356834722,0.00981941679240702));
#954=CARTESIAN_POINT('',(0.0161917311293391,-0.0205286318656835,0.010823080783022));
#955=CARTESIAN_POINT('',(0.0158141089164483,-0.0203994774623076,0.0111779295899203));
#956=CARTESIAN_POINT('',(-0.015460555525855,-0.0109690540589061,0.035625902746581));
#957=CARTESIAN_POINT('',(-0.0151752828285938,-0.0110666230677103,0.0353578340980529));
#958=CARTESIAN_POINT('',(-0.0143684097937107,-0.0111809322718906,0.0350437721407315));
#959=CARTESIAN_POINT('',(-0.0131581002413859,-0.0110094684656201,0.0355148650767136));
#960=CARTESIAN_POINT('',(-0.0126567736101433,-0.0105955182190655,0.0366521840318999));
#961=CARTESIAN_POINT('',(-0.0131581002413859,-0.010181567972511,0.0377895029870862));
#962=CARTESIAN_POINT('',(-0.0143684097937106,-0.0100101041662404,0.0382605959230683));
#963=CARTESIAN_POINT('',(-0.0155787193460354,-0.010181567972511,0.0377895029870862));
#964=CARTESIAN_POINT('',(-0.016080045977278,-0.0105955182190655,0.0366521840318999));
#965=CARTESIAN_POINT('',(-0.0157458282231163,-0.0108714850501019,0.0358939713951091));
#966=CARTESIAN_POINT('',(-0.015460555525855,-0.0109690540589061,0.035625902746581));
#967=CARTESIAN_POINT('',(-0.015460555525855,-0.0109984194533056,0.0356365908760599));
#968=CARTESIAN_POINT('',(-0.0151752828285938,-0.0110959884621098,0.0353685222275319));
#969=CARTESIAN_POINT('',(-0.0143684097937107,-0.0112102976662902,0.0350544602702104));
#970=CARTESIAN_POINT('',(-0.0131581002413859,-0.0110388338600196,0.0355255532061926));
#971=CARTESIAN_POINT('',(-0.0126567736101433,-0.0106248836134651,0.0366628721613788));
#972=CARTESIAN_POINT('',(-0.0131581002413859,-0.0102109333669106,0.0378001911165651));
#973=CARTESIAN_POINT('',(-0.0143684097937106,-0.01003946956064,0.0382712840525472));
#974=CARTESIAN_POINT('',(-0.0155787193460354,-0.0102109333669106,0.0378001911165651));
#975=CARTESIAN_POINT('',(-0.016080045977278,-0.0106248836134651,0.0366628721613788));
#976=CARTESIAN_POINT('',(-0.0157458282231163,-0.0109008504445015,0.035904659524588));
#977=CARTESIAN_POINT('',(-0.015460555525855,-0.0109984194533056,0.0356365908760599));
#978=CARTESIAN_POINT('',(-0.0154606897963484,-0.0110280856788561,0.0356472456114487));
#979=CARTESIAN_POINT('',(-0.015175382027114,-0.0111256666829816,0.0353791440060463));
#980=CARTESIAN_POINT('',(-0.0143684097937107,-0.011239989940555,0.0350650434373448));
#981=CARTESIAN_POINT('',(-0.0131579514436056,-0.0110685050541948,0.035536194290397));
#982=CARTESIAN_POINT('',(-0.0126565631783043,-0.0106545039158022,0.0366736530697595));
#983=CARTESIAN_POINT('',(-0.0131579514436056,-0.0102405027774095,0.0378111118491219));
#984=CARTESIAN_POINT('',(-0.0143684097937106,-0.0100690178910493,0.0382822627021742));
#985=CARTESIAN_POINT('',(-0.0155788681438157,-0.0102405027774094,0.037811111849122));
#986=CARTESIAN_POINT('',(-0.016080256409117,-0.0106545039158022,0.0366736530697595));
#987=CARTESIAN_POINT('',(-0.0157459975655828,-0.0109305046747306,0.0359153472168512));
#988=CARTESIAN_POINT('',(-0.0154606897963484,-0.0110280856788561,0.0356472456114487));
#989=CARTESIAN_POINT('',(-0.0154650823596322,-0.0110910208369165,0.0356654776674608));
#990=CARTESIAN_POINT('',(-0.015178627235847,-0.0111889942594099,0.0353962979014536));
#991=CARTESIAN_POINT('',(-0.0143684097937107,-0.0113037772636989,0.0350809341890324));
#992=CARTESIAN_POINT('',(-0.0131530836305061,-0.0111316027572654,0.0355539797576643));
#993=CARTESIAN_POINT('',(-0.0126496790509999,-0.0107159367287387,0.0366960127850756));
#994=CARTESIAN_POINT('',(-0.0131530836305061,-0.0103002707002121,0.0378380458124871));
#995=CARTESIAN_POINT('',(-0.0143684097937106,-0.0101280961937786,0.0383110913811188));
#996=CARTESIAN_POINT('',(-0.0155837359569152,-0.010300270700212,0.0378380458124871));
#997=CARTESIAN_POINT('',(-0.0160871405364214,-0.0107159367287387,0.0366960127850757));
#998=CARTESIAN_POINT('',(-0.0157515374834173,-0.0109930474144232,0.035934657433468));
#999=CARTESIAN_POINT('',(-0.0154650823596322,-0.0110910208369165,0.0356654776674608));
#1000=CARTESIAN_POINT('',(-0.0154693022894244,-0.0111241746853334,0.0356730539259497));
#1001=CARTESIAN_POINT('',(-0.0151817449036255,-0.0112225251036387,0.0354028383724619));
#1002=CARTESIAN_POINT('',(-0.0143684097937107,-0.0113377497859951,0.035086261159524));
#1003=CARTESIAN_POINT('',(-0.0131484071288384,-0.0111649127624606,0.0355611269789309));
#1004=CARTESIAN_POINT('',(-0.012643065478917,-0.0107476472761633,0.0367075544804505));
#1005=CARTESIAN_POINT('',(-0.0131484071288384,-0.010330381789866,0.0378539819819701));
#1006=CARTESIAN_POINT('',(-0.0143684097937106,-0.0101575447663314,0.0383288478013769));
#1007=CARTESIAN_POINT('',(-0.0155884124585829,-0.0103303817898659,0.0378539819819701));
#1008=CARTESIAN_POINT('',(-0.0160937541085043,-0.0107476472761632,0.0367075544804505));
#1009=CARTESIAN_POINT('',(-0.0157568596752233,-0.0110258242670281,0.0359432694794374));
#1010=CARTESIAN_POINT('',(-0.0154693022894244,-0.0111241746853334,0.0356730539259497));
#1011=CARTESIAN_POINT('',(-0.0154831129687445,-0.011191707531653,0.03568293685389));
#1012=CARTESIAN_POINT('',(-0.0151919481799912,-0.0112912917544337,0.035409331450466));
#1013=CARTESIAN_POINT('',(-0.0143684097937107,-0.0114079619286469,0.0350887827812914));
#1014=CARTESIAN_POINT('',(-0.0131331022142898,-0.0112329566673271,0.0355696057850532));
#1015=CARTESIAN_POINT('',(-0.0126214210611913,-0.0108104565919623,0.0367304152018359));
#1016=CARTESIAN_POINT('',(-0.0131331022142898,-0.0103879565165975,0.0378912246186187));
#1017=CARTESIAN_POINT('',(-0.0143684097937106,-0.0102129512552777,0.0383720476223804));
#1018=CARTESIAN_POINT('',(-0.0156037173731315,-0.0103879565165975,0.0378912246186187));
#1019=CARTESIAN_POINT('',(-0.01611539852623,-0.0108104565919623,0.0367304152018359));
#1020=CARTESIAN_POINT('',(-0.0157742777574977,-0.0110921233088722,0.0359565422573141));
#1021=CARTESIAN_POINT('',(-0.0154831129687445,-0.011191707531653,0.03568293685389));
#1022=CARTESIAN_POINT('',(-0.0154926653552742,-0.0112259714454625,0.0356852424612072));
#1023=CARTESIAN_POINT('',(-0.0151990054461442,-0.0113264090496721,0.0354092924115771));
#1024=CARTESIAN_POINT('',(-0.0143684097937107,-0.0114440790224196,0.0350859968185056));
#1025=CARTESIAN_POINT('',(-0.0131225163150603,-0.0112675740632984,0.0355709402081129));
#1026=CARTESIAN_POINT('',(-0.0126064503389311,-0.0108414533971619,0.0367416971162859));
#1027=CARTESIAN_POINT('',(-0.0131225163150603,-0.0104153327310253,0.037912454024459));
#1028=CARTESIAN_POINT('',(-0.0143684097937106,-0.0102388277719041,0.0383973974140662));
#1029=CARTESIAN_POINT('',(-0.015614303272361,-0.0104153327310253,0.037912454024459));
#1030=CARTESIAN_POINT('',(-0.0161303692484902,-0.0108414533971618,0.0367416971162859));
#1031=CARTESIAN_POINT('',(-0.0157863252644041,-0.0111255338412529,0.0359611925108372));
#1032=CARTESIAN_POINT('',(-0.0154926653552742,-0.0112259714454625,0.0356852424612072));
#1033=CARTESIAN_POINT('',(-0.0155170066775758,-0.0112916509539414,0.0356832443531487));
#1034=CARTESIAN_POINT('',(-0.0152169887207389,-0.0113942631385391,0.0354013196930059));
#1035=CARTESIAN_POINT('',(-0.0143684097937107,-0.0115144807906842,0.0350710244083174));
#1036=CARTESIAN_POINT('',(-0.0130955414031683,-0.0113341543124665,0.0355664673353501));
#1037=CARTESIAN_POINT('',(-0.0125683020526896,-0.0108988076830985,0.0367625723691744));
#1038=CARTESIAN_POINT('',(-0.0130955414031683,-0.0104634610537305,0.0379586774029988));
#1039=CARTESIAN_POINT('',(-0.0143684097937106,-0.0102831345755128,0.0384541203300315));
#1040=CARTESIAN_POINT('',(-0.0156412781842531,-0.0104634610537305,0.0379586774029988));
#1041=CARTESIAN_POINT('',(-0.0161685175347317,-0.0108988076830985,0.0367625723691745));
#1042=CARTESIAN_POINT('',(-0.0158170246344126,-0.0111890387693438,0.0359651690132916));
#1043=CARTESIAN_POINT('',(-0.0155170066775758,-0.0112916509539414,0.0356832443531487));
#1044=CARTESIAN_POINT('',(-0.0155317572503495,-0.0113229514645178,0.0356789395756387));
#1045=CARTESIAN_POINT('',(-0.0152278863867462,-0.0114268814208399,0.0353933943674389));
#1046=CARTESIAN_POINT('',(-0.0143684097937107,-0.0115486429385931,0.0350588573468532));
#1047=CARTESIAN_POINT('',(-0.0130791949041573,-0.0113660006619632,0.0355606628777317));
#1048=CARTESIAN_POINT('',(-0.0125451846120909,-0.0109250632006606,0.0367721285960523));
#1049=CARTESIAN_POINT('',(-0.0130791949041573,-0.010484125739358,0.037983594314373));
#1050=CARTESIAN_POINT('',(-0.0143684097937106,-0.010301483462728,0.0384853998452514));
#1051=CARTESIAN_POINT('',(-0.015657624683264,-0.010484125739358,0.037983594314373));
#1052=CARTESIAN_POINT('',(-0.0161916349753304,-0.0109250632006606,0.0367721285960523));
#1053=CARTESIAN_POINT('',(-0.0158356281139528,-0.0112190215081957,0.0359644847838386));
#1054=CARTESIAN_POINT('',(-0.0155317572503495,-0.0113229514645178,0.0356789395756387));
#1055=CARTESIAN_POINT('',(-0.0155661304966572,-0.0113803873095458,0.0356632652689204));
#1056=CARTESIAN_POINT('',(-0.0152532812079233,-0.0114873880681179,0.035369283100879));
#1057=CARTESIAN_POINT('',(-0.0143684097937107,-0.0116127472544926,0.0350248615669934));
#1058=CARTESIAN_POINT('',(-0.0130411026723917,-0.0114247084749306,0.0355414938678218));
#1059=CARTESIAN_POINT('',(-0.012491314061307,-0.0109707427030599,0.0367887545752417));
#1060=CARTESIAN_POINT('',(-0.0130411026723917,-0.0105167769311892,0.0380360152826618));
#1061=CARTESIAN_POINT('',(-0.0143684097937106,-0.0103287381516272,0.0385526475834901));
#1062=CARTESIAN_POINT('',(-0.0156957169150296,-0.0105167769311892,0.0380360152826618));
#1063=CARTESIAN_POINT('',(-0.0162455055261143,-0.0109707427030599,0.0367887545752418));
#1064=CARTESIAN_POINT('',(-0.0158789797853912,-0.0112733865509737,0.0359572474369618));
#1065=CARTESIAN_POINT('',(-0.0155661304966572,-0.0113803873095458,0.0356632652689204));
#1066=CARTESIAN_POINT('',(-0.0155858874406845,-0.0114067470027672,0.0356518345119514));
#1067=CARTESIAN_POINT('',(-0.0152678775616132,-0.0115155127871861,0.0353530029752511));
#1068=CARTESIAN_POINT('',(-0.0143684097937107,-0.011642939829967,0.0350029000525826));
#1069=CARTESIAN_POINT('',(-0.0130192081418568,-0.0114517992657956,0.0355280544365854));
#1070=CARTESIAN_POINT('',(-0.0124603505192828,-0.0109903451234534,0.0367958892727845));
#1071=CARTESIAN_POINT('',(-0.0130192081418569,-0.0105288909811111,0.0380637241089837));
#1072=CARTESIAN_POINT('',(-0.0143684097937106,-0.0103377504169397,0.0385888784929865));
#1073=CARTESIAN_POINT('',(-0.0157176114455645,-0.0105288909811111,0.0380637241089838));
#1074=CARTESIAN_POINT('',(-0.0162764690681385,-0.0109903451234534,0.0367958892727845));
#1075=CARTESIAN_POINT('',(-0.0159038973197558,-0.0112979812183482,0.0359506660486518));
#1076=CARTESIAN_POINT('',(-0.0155858874406845,-0.0114067470027672,0.0356518345119514));
#1077=CARTESIAN_POINT('',(-0.0156290458135597,-0.0114538558529119,0.0356230525500647));
#1078=CARTESIAN_POINT('',(-0.0152997628002562,-0.0115664772763166,0.0353136277323133));
#1079=CARTESIAN_POINT('',(-0.0143684097937107,-0.0116984214811501,0.0349511140089054));
#1080=CARTESIAN_POINT('',(-0.0129713802838923,-0.0115005051738999,0.0354948845940172));
#1081=CARTESIAN_POINT('',(-0.0123927117138901,-0.0110226929407216,0.0368076629154137));
#1082=CARTESIAN_POINT('',(-0.0129713802838923,-0.0105448807075434,0.0381204412368102));
#1083=CARTESIAN_POINT('',(-0.0143684097937106,-0.0103469644002931,0.0386642118219219));
#1084=CARTESIAN_POINT('',(-0.015765439303529,-0.0105448807075434,0.0381204412368102));
#1085=CARTESIAN_POINT('',(-0.0163441078735312,-0.0110226929407216,0.0368076629154137));
#1086=CARTESIAN_POINT('',(-0.0159583288268631,-0.0113412344295071,0.035932477367816));
#1087=CARTESIAN_POINT('',(-0.0156290458135597,-0.0114538558529119,0.0356230525500647));
#1088=CARTESIAN_POINT('',(-0.0156523705164113,-0.0114745277864115,0.0356057548882189));
#1089=CARTESIAN_POINT('',(-0.0153169950003407,-0.0115892329684859,0.0352906049905751));
#1090=CARTESIAN_POINT('',(-0.0143684097937107,-0.0117236184484554,0.0349213839188565));
#1091=CARTESIAN_POINT('',(-0.0129455319837657,-0.0115220402285012,0.0354752155264343));
#1092=CARTESIAN_POINT('',(-0.0123561566972867,-0.011035387356009,0.0368122833047197));
#1093=CARTESIAN_POINT('',(-0.0129455319837657,-0.0105487344835166,0.038149351083005));
#1094=CARTESIAN_POINT('',(-0.0143684097937106,-0.0103471562635625,0.0387031826905828));
#1095=CARTESIAN_POINT('',(-0.0157912876036557,-0.0105487344835166,0.038149351083005));
#1096=CARTESIAN_POINT('',(-0.0163806628901346,-0.0110353873560089,0.0368122833047197));
#1097=CARTESIAN_POINT('',(-0.015987746032482,-0.0113598226043371,0.0359209047858628));
#1098=CARTESIAN_POINT('',(-0.0156523705164113,-0.0114745277864115,0.0356057548882189));
#1099=CARTESIAN_POINT('',(-0.0156996337300844,-0.0115090461290258,0.0355680220760201));
#1100=CARTESIAN_POINT('',(-0.0153519128794591,-0.0116279736641939,0.0352412713585941));
#1101=CARTESIAN_POINT('',(-0.0143684097937107,-0.0117673059385178,0.0348584590810881));
#1102=CARTESIAN_POINT('',(-0.012893155165088,-0.011558307527032,0.0354326774973471));
#1103=CARTESIAN_POINT('',(-0.0122820846899589,-0.0110537407275087,0.036818963385644));
#1104=CARTESIAN_POINT('',(-0.0128931551650881,-0.0105491739279853,0.0382052492739409));
#1105=CARTESIAN_POINT('',(-0.0143684097937106,-0.0103401755164995,0.0387794676901999));
#1106=CARTESIAN_POINT('',(-0.0158436644223333,-0.0105491739279853,0.0382052492739409));
#1107=CARTESIAN_POINT('',(-0.0164547348974624,-0.0110537407275087,0.036818963385644));
#1108=CARTESIAN_POINT('',(-0.0160473545807097,-0.0113901185938576,0.0358947727934461));
#1109=CARTESIAN_POINT('',(-0.0156996337300844,-0.0115090461290258,0.0355680220760201));
#1110=CARTESIAN_POINT('',(-0.0157234955149096,-0.0115228153147166,0.035547640468739));
#1111=CARTESIAN_POINT('',(-0.0153695418736244,-0.0116438745898396,0.0352150328439231));
#1112=CARTESIAN_POINT('',(-0.0143684097937107,-0.0117857043528716,0.034825358772586));
#1113=CARTESIAN_POINT('',(-0.0128667116738401,-0.0115729597083236,0.0354098698795915));
#1114=CARTESIAN_POINT('',(-0.0122446879459995,-0.0110593487021336,0.036821004521482));
#1115=CARTESIAN_POINT('',(-0.0128667116738401,-0.0105457376959436,0.0382321391633724));
#1116=CARTESIAN_POINT('',(-0.0143684097937106,-0.0103329930513956,0.038816650270378));
#1117=CARTESIAN_POINT('',(-0.0158701079135812,-0.0105457376959436,0.0382321391633724));
#1118=CARTESIAN_POINT('',(-0.0164921316414218,-0.0110593487021336,0.036821004521482));
#1119=CARTESIAN_POINT('',(-0.0160774491561948,-0.0114017560395936,0.035880248093555));
#1120=CARTESIAN_POINT('',(-0.0157234955149096,-0.0115228153147166,0.035547640468739));
#1121=CARTESIAN_POINT('',(-0.0157697229276336,-0.0115444634128107,0.0355063255469738));
#1122=CARTESIAN_POINT('',(-0.0154036945070154,-0.0116696525056918,0.0351623713411209));
#1123=CARTESIAN_POINT('',(-0.0143684097937107,-0.011816320651189,0.0347594039232141));
#1124=CARTESIAN_POINT('',(-0.0128154827237536,-0.0115963184329432,0.0353638550500742));
#1125=CARTESIAN_POINT('',(-0.0121722392700011,-0.0110651860939023,0.0368231291583315));
#1126=CARTESIAN_POINT('',(-0.0128154827237536,-0.0105340537548612,0.0382824032665889));
#1127=CARTESIAN_POINT('',(-0.0143684097937106,-0.0103140515366155,0.0388868543934489));
#1128=CARTESIAN_POINT('',(-0.0159213368636677,-0.0105340537548612,0.0382824032665889));
#1129=CARTESIAN_POINT('',(-0.0165645803174202,-0.0110651860939023,0.0368231291583316));
#1130=CARTESIAN_POINT('',(-0.0161357513482519,-0.0114192743199296,0.0358502797528266));
#1131=CARTESIAN_POINT('',(-0.0157697229276336,-0.0115444634128107,0.0355063255469738));
#1132=CARTESIAN_POINT('',(-0.0157920118295362,-0.0115522651017903,0.0354854457755616));
#1133=CARTESIAN_POINT('',(-0.0154201614613723,-0.0116794454180054,0.0351360207285615));
#1134=CARTESIAN_POINT('',(-0.0143684097937107,-0.0118284464267492,0.0347266438215618));
#1135=CARTESIAN_POINT('',(-0.0127907822922181,-0.0116049449136335,0.0353407091820613));
#1136=CARTESIAN_POINT('',(-0.0121373075847272,-0.0110653645294585,0.0368231941035627));
#1137=CARTESIAN_POINT('',(-0.0127907822922181,-0.0105257841452835,0.0383056790250642));
#1138=CARTESIAN_POINT('',(-0.0143684097937106,-0.0103022826321677,0.0389197443855637));
#1139=CARTESIAN_POINT('',(-0.0159460372952032,-0.0105257841452835,0.0383056790250642));
#1140=CARTESIAN_POINT('',(-0.0165995120026941,-0.0110653645294585,0.0368231941035628));
#1141=CARTESIAN_POINT('',(-0.0161638621977002,-0.0114250847855751,0.0358348708225618));
#1142=CARTESIAN_POINT('',(-0.0157920118295362,-0.0115522651017903,0.0354854457755616));
#1143=CARTESIAN_POINT('',(-0.0158141089164483,-0.011559822750623,0.0354646813060495));
#1144=CARTESIAN_POINT('',(-0.0154364867035576,-0.0116889771539989,0.0351098324991512));
#1145=CARTESIAN_POINT('',(-0.0143684097937107,-0.0118402909497136,0.034694101262173));
#1146=CARTESIAN_POINT('',(-0.0127662944289403,-0.0116133202561415,0.0353176981176403));
#1147=CARTESIAN_POINT('',(-0.0121026765163661,-0.0110653645294585,0.0368231941035628));
#1148=CARTESIAN_POINT('',(-0.0127662944289403,-0.0105174088027755,0.0383286900894852));
#1149=CARTESIAN_POINT('',(-0.0143684097937106,-0.0102904381092034,0.0389522869449525));
#1150=CARTESIAN_POINT('',(-0.015970525158481,-0.0105174088027755,0.0383286900894852));
#1151=CARTESIAN_POINT('',(-0.0166341430710552,-0.0110653645294585,0.0368231941035628));
#1152=CARTESIAN_POINT('',(-0.0161917311293391,-0.0114306683472472,0.0358195301129478));
#1153=CARTESIAN_POINT('',(-0.0158141089164483,-0.011559822750623,0.0354646813060495));
#1154=MECHANICAL_DESIGN_GEOMETRIC_PRESENTATION_REPRESENTATION('',(#417),
#1155);
#1155=(
GEOMETRIC_REPRESENTATION_CONTEXT(3)
GLOBAL_UNCERTAINTY_ASSIGNED_CONTEXT((#1156))
GLOBAL_UNIT_ASSIGNED_CONTEXT((#1159,#1158,#1157))
REPRESENTATION_CONTEXT('Front Plate','TOP_LEVEL_ASSEMBLY_PART')
);
#1156=UNCERTAINTY_MEASURE_WITH_UNIT(LENGTH_MEASURE(2.E-5),#1159,
'DISTANCE_ACCURACY_VALUE','Maximum Tolerance applied to model');
#1157=(
NAMED_UNIT(*)
SI_UNIT($,.STERADIAN.)
SOLID_ANGLE_UNIT()
);
#1158=(
NAMED_UNIT(*)
PLANE_ANGLE_UNIT()
SI_UNIT($,.RADIAN.)
);
#1159=(
LENGTH_UNIT()
NAMED_UNIT(*)
SI_UNIT($,.METRE.)
);
#1160=PRODUCT_DEFINITION_SHAPE('','',#1161);
#1161=PRODUCT_DEFINITION('','',#1163,#1162);
#1162=PRODUCT_DEFINITION_CONTEXT('',#1169,'design');
#1163=PRODUCT_DEFINITION_FORMATION_WITH_SPECIFIED_SOURCE('','',#1165,
 .NOT_KNOWN.);
#1164=PRODUCT_RELATED_PRODUCT_CATEGORY('','',(#1165));
#1165=PRODUCT('Front Plate','Front Plate','Front Plate',(#1167));
#1166=PRODUCT_CATEGORY('','');
#1167=PRODUCT_CONTEXT('',#1169,'mechanical');
#1168=APPLICATION_PROTOCOL_DEFINITION('international standard',
'ap242_managed_model_based_3d_engineering',2020,#1169);
#1169=APPLICATION_CONTEXT('managed model based 3d engineering');
ENDSEC;
END-ISO-10303-21;
