ISO-10303-21;
HEADER;
/* Generated by software containing ST-Developer
 * from STEP Tools, Inc. (www.steptools.com) 
 */
/* OPTION: using custom renumber hook */

FILE_DESCRIPTION(
/* description */ ('STEP AP242 Edition 2',
'CAx-IF Rec.Pracs.---Representation and Presentation of Product Manufa
cturing Information (PMI)---4.0---2014-10-13',
'CAx-IF Rec.Pracs.---3D Tessellated Geometry---0.4---2014-09-14','2;1',
'CAx-IF Rec.Pracs.---User Defined Attributes---1.5---2016-08-15'),
/* implementation_level */ '2;1');

FILE_NAME(
/* name */ 'Part Studio 1 - Bezel',
/* time_stamp */ '2026-07-29T00:54:49Z',
/* author */ (''),
/* organization */ (''),
/* preprocessor_version */ 'ST-DEVELOPER v20',
/* originating_system */ 'ONSHAPE BY PTC INC, 1.218',
/* authorisation */ '  ');

FILE_SCHEMA (('AP242_MANAGED_MODEL_BASED_3D_ENGINEERING_MIM_LF { 1 0 10303 442 3 1 4 }'));
ENDSEC;

DATA;
#10=SHAPE_REPRESENTATION_RELATIONSHIP('','',#280,#11);
#11=ADVANCED_BREP_SHAPE_REPRESENTATION('',(#278),#511);
#12=CYLINDRICAL_SURFACE('',#295,0.023256);
#13=CYLINDRICAL_SURFACE('',#302,0.016456);
#14=CYLINDRICAL_SURFACE('',#305,0.001);
#15=CYLINDRICAL_SURFACE('',#307,0.002);
#16=CYLINDRICAL_SURFACE('',#310,0.001);
#17=CYLINDRICAL_SURFACE('',#312,0.002);
#18=CYLINDRICAL_SURFACE('',#315,0.001);
#19=CYLINDRICAL_SURFACE('',#317,0.002);
#20=CYLINDRICAL_SURFACE('',#320,0.001);
#21=CYLINDRICAL_SURFACE('',#322,0.002);
#22=PLANE('',#288);
#23=PLANE('',#296);
#24=PLANE('',#309);
#25=PLANE('',#314);
#26=PLANE('',#319);
#27=PLANE('',#324);
#28=B_SPLINE_CURVE_WITH_KNOTS('',3,(#420,#421,#422,#423,#424,#425,#426),
 .UNSPECIFIED.,.F.,.F.,(4,1,1,1,4),(3.01502562340369E-7,0.00125965664918588,
0.00251901179580941,0.00377836694243295,0.00503772208905648),
 .UNSPECIFIED.);
#29=B_SPLINE_CURVE_WITH_KNOTS('',3,(#430,#431,#432,#433,#434,#435,#436),
 .UNSPECIFIED.,.F.,.F.,(4,1,1,1,4),(3.01502562385342E-7,0.00125965664918591,
0.00251901179580943,0.00377836694243295,0.00503772208905648),
 .UNSPECIFIED.);
#30=B_SPLINE_CURVE_WITH_KNOTS('',3,(#440,#441,#442,#443,#444,#445,#446),
 .UNSPECIFIED.,.F.,.F.,(4,1,1,1,4),(3.01502562387303E-7,0.00125965664918591,
0.00251901179580943,0.00377836694243296,0.00503772208905648),
 .UNSPECIFIED.);
#31=B_SPLINE_CURVE_WITH_KNOTS('',3,(#450,#451,#452,#453,#454,#455,#456),
 .UNSPECIFIED.,.F.,.F.,(4,1,1,1,4),(3.01502562366322E-7,0.00125965664918587,
0.00251901179580938,0.00377836694243289,0.0050377220890564),
 .UNSPECIFIED.);
#32=ORIENTED_EDGE('',*,*,#90,.F.);
#33=ORIENTED_EDGE('',*,*,#91,.F.);
#34=ORIENTED_EDGE('',*,*,#92,.T.);
#35=ORIENTED_EDGE('',*,*,#93,.F.);
#36=ORIENTED_EDGE('',*,*,#94,.T.);
#37=ORIENTED_EDGE('',*,*,#95,.F.);
#38=ORIENTED_EDGE('',*,*,#96,.T.);
#39=ORIENTED_EDGE('',*,*,#97,.F.);
#40=ORIENTED_EDGE('',*,*,#98,.T.);
#41=ORIENTED_EDGE('',*,*,#99,.F.);
#42=ORIENTED_EDGE('',*,*,#100,.T.);
#43=ORIENTED_EDGE('',*,*,#101,.F.);
#44=ORIENTED_EDGE('',*,*,#102,.F.);
#45=ORIENTED_EDGE('',*,*,#103,.T.);
#46=ORIENTED_EDGE('',*,*,#104,.F.);
#47=ORIENTED_EDGE('',*,*,#90,.T.);
#48=ORIENTED_EDGE('',*,*,#102,.T.);
#49=ORIENTED_EDGE('',*,*,#105,.T.);
#50=ORIENTED_EDGE('',*,*,#93,.T.);
#51=ORIENTED_EDGE('',*,*,#106,.T.);
#52=ORIENTED_EDGE('',*,*,#91,.T.);
#53=ORIENTED_EDGE('',*,*,#107,.T.);
#54=ORIENTED_EDGE('',*,*,#97,.T.);
#55=ORIENTED_EDGE('',*,*,#108,.T.);
#56=ORIENTED_EDGE('',*,*,#95,.T.);
#57=ORIENTED_EDGE('',*,*,#109,.T.);
#58=ORIENTED_EDGE('',*,*,#110,.T.);
#59=ORIENTED_EDGE('',*,*,#101,.T.);
#60=ORIENTED_EDGE('',*,*,#110,.F.);
#61=ORIENTED_EDGE('',*,*,#105,.F.);
#62=ORIENTED_EDGE('',*,*,#99,.T.);
#63=ORIENTED_EDGE('',*,*,#111,.F.);
#64=ORIENTED_EDGE('',*,*,#96,.F.);
#65=ORIENTED_EDGE('',*,*,#108,.F.);
#66=ORIENTED_EDGE('',*,*,#112,.T.);
#67=ORIENTED_EDGE('',*,*,#111,.T.);
#68=ORIENTED_EDGE('',*,*,#112,.F.);
#69=ORIENTED_EDGE('',*,*,#113,.T.);
#70=ORIENTED_EDGE('',*,*,#100,.F.);
#71=ORIENTED_EDGE('',*,*,#94,.F.);
#72=ORIENTED_EDGE('',*,*,#109,.F.);
#73=ORIENTED_EDGE('',*,*,#114,.F.);
#74=ORIENTED_EDGE('',*,*,#113,.F.);
#75=ORIENTED_EDGE('',*,*,#114,.T.);
#76=ORIENTED_EDGE('',*,*,#115,.T.);
#77=ORIENTED_EDGE('',*,*,#103,.F.);
#78=ORIENTED_EDGE('',*,*,#98,.F.);
#79=ORIENTED_EDGE('',*,*,#107,.F.);
#80=ORIENTED_EDGE('',*,*,#116,.F.);
#81=ORIENTED_EDGE('',*,*,#115,.F.);
#82=ORIENTED_EDGE('',*,*,#116,.T.);
#83=ORIENTED_EDGE('',*,*,#104,.T.);
#84=ORIENTED_EDGE('',*,*,#117,.F.);
#85=ORIENTED_EDGE('',*,*,#92,.F.);
#86=ORIENTED_EDGE('',*,*,#106,.F.);
#87=ORIENTED_EDGE('',*,*,#118,.T.);
#88=ORIENTED_EDGE('',*,*,#117,.T.);
#89=ORIENTED_EDGE('',*,*,#118,.F.);
#90=EDGE_CURVE('',#119,#119,#144,.F.);
#91=EDGE_CURVE('',#120,#121,#145,.T.);
#92=EDGE_CURVE('',#120,#122,#28,.T.);
#93=EDGE_CURVE('',#123,#122,#146,.T.);
#94=EDGE_CURVE('',#123,#124,#29,.T.);
#95=EDGE_CURVE('',#125,#124,#147,.T.);
#96=EDGE_CURVE('',#125,#126,#30,.T.);
#97=EDGE_CURVE('',#127,#126,#148,.T.);
#98=EDGE_CURVE('',#127,#121,#31,.T.);
#99=EDGE_CURVE('',#128,#128,#149,.T.);
#100=EDGE_CURVE('',#129,#129,#150,.T.);
#101=EDGE_CURVE('',#130,#130,#151,.F.);
#102=EDGE_CURVE('',#131,#131,#152,.T.);
#103=EDGE_CURVE('',#132,#132,#153,.T.);
#104=EDGE_CURVE('',#133,#133,#154,.T.);
#105=EDGE_CURVE('',#134,#134,#155,.F.);
#106=EDGE_CURVE('',#122,#120,#156,.F.);
#107=EDGE_CURVE('',#121,#127,#157,.F.);
#108=EDGE_CURVE('',#126,#125,#158,.F.);
#109=EDGE_CURVE('',#124,#123,#159,.F.);
#110=EDGE_CURVE('',#135,#135,#160,.T.);
#111=EDGE_CURVE('',#136,#136,#161,.T.);
#112=EDGE_CURVE('',#137,#137,#162,.T.);
#113=EDGE_CURVE('',#138,#138,#163,.T.);
#114=EDGE_CURVE('',#139,#139,#164,.T.);
#115=EDGE_CURVE('',#140,#140,#165,.T.);
#116=EDGE_CURVE('',#141,#141,#166,.T.);
#117=EDGE_CURVE('',#142,#142,#167,.T.);
#118=EDGE_CURVE('',#143,#143,#168,.T.);
#119=VERTEX_POINT('',#416);
#120=VERTEX_POINT('',#418);
#121=VERTEX_POINT('',#419);
#122=VERTEX_POINT('',#427);
#123=VERTEX_POINT('',#429);
#124=VERTEX_POINT('',#437);
#125=VERTEX_POINT('',#439);
#126=VERTEX_POINT('',#447);
#127=VERTEX_POINT('',#449);
#128=VERTEX_POINT('',#459);
#129=VERTEX_POINT('',#461);
#130=VERTEX_POINT('',#463);
#131=VERTEX_POINT('',#465);
#132=VERTEX_POINT('',#467);
#133=VERTEX_POINT('',#469);
#134=VERTEX_POINT('',#473);
#135=VERTEX_POINT('',#480);
#136=VERTEX_POINT('',#484);
#137=VERTEX_POINT('',#487);
#138=VERTEX_POINT('',#491);
#139=VERTEX_POINT('',#494);
#140=VERTEX_POINT('',#498);
#141=VERTEX_POINT('',#501);
#142=VERTEX_POINT('',#505);
#143=VERTEX_POINT('',#508);
#144=CIRCLE('',#283,0.023256);
#145=CIRCLE('',#284,0.021256);
#146=CIRCLE('',#285,0.021256);
#147=CIRCLE('',#286,0.021256);
#148=CIRCLE('',#287,0.021256);
#149=CIRCLE('',#289,0.001);
#150=CIRCLE('',#290,0.001);
#151=CIRCLE('',#291,0.016456);
#152=CIRCLE('',#292,0.023256);
#153=CIRCLE('',#293,0.001);
#154=CIRCLE('',#294,0.001);
#155=CIRCLE('',#297,0.017456);
#156=CIRCLE('',#298,0.002);
#157=CIRCLE('',#299,0.002);
#158=CIRCLE('',#300,0.002);
#159=CIRCLE('',#301,0.002);
#160=CIRCLE('',#303,0.016456);
#161=CIRCLE('',#306,0.001);
#162=CIRCLE('',#308,0.002);
#163=CIRCLE('',#311,0.001);
#164=CIRCLE('',#313,0.002);
#165=CIRCLE('',#316,0.001);
#166=CIRCLE('',#318,0.002);
#167=CIRCLE('',#321,0.001);
#168=CIRCLE('',#323,0.002);
#169=EDGE_LOOP('',(#32));
#170=EDGE_LOOP('',(#33,#34,#35,#36,#37,#38,#39,#40));
#171=EDGE_LOOP('',(#41));
#172=EDGE_LOOP('',(#42));
#173=EDGE_LOOP('',(#43));
#174=EDGE_LOOP('',(#44));
#175=EDGE_LOOP('',(#45));
#176=EDGE_LOOP('',(#46));
#177=EDGE_LOOP('',(#47));
#178=EDGE_LOOP('',(#48));
#179=EDGE_LOOP('',(#49));
#180=EDGE_LOOP('',(#50,#51,#52,#53,#54,#55,#56,#57));
#181=EDGE_LOOP('',(#58));
#182=EDGE_LOOP('',(#59));
#183=EDGE_LOOP('',(#60));
#184=EDGE_LOOP('',(#61));
#185=EDGE_LOOP('',(#62));
#186=EDGE_LOOP('',(#63));
#187=EDGE_LOOP('',(#64,#65));
#188=EDGE_LOOP('',(#66));
#189=EDGE_LOOP('',(#67));
#190=EDGE_LOOP('',(#68));
#191=EDGE_LOOP('',(#69));
#192=EDGE_LOOP('',(#70));
#193=EDGE_LOOP('',(#71,#72));
#194=EDGE_LOOP('',(#73));
#195=EDGE_LOOP('',(#74));
#196=EDGE_LOOP('',(#75));
#197=EDGE_LOOP('',(#76));
#198=EDGE_LOOP('',(#77));
#199=EDGE_LOOP('',(#78,#79));
#200=EDGE_LOOP('',(#80));
#201=EDGE_LOOP('',(#81));
#202=EDGE_LOOP('',(#82));
#203=EDGE_LOOP('',(#83));
#204=EDGE_LOOP('',(#84));
#205=EDGE_LOOP('',(#85,#86));
#206=EDGE_LOOP('',(#87));
#207=EDGE_LOOP('',(#88));
#208=EDGE_LOOP('',(#89));
#209=FACE_BOUND('',#169,.T.);
#210=FACE_BOUND('',#170,.T.);
#211=FACE_BOUND('',#171,.T.);
#212=FACE_BOUND('',#172,.T.);
#213=FACE_BOUND('',#173,.T.);
#214=FACE_BOUND('',#174,.T.);
#215=FACE_BOUND('',#175,.T.);
#216=FACE_BOUND('',#176,.T.);
#217=FACE_BOUND('',#177,.T.);
#218=FACE_BOUND('',#178,.T.);
#219=FACE_BOUND('',#179,.T.);
#220=FACE_BOUND('',#180,.T.);
#221=FACE_BOUND('',#181,.T.);
#222=FACE_BOUND('',#182,.T.);
#223=FACE_BOUND('',#183,.T.);
#224=FACE_BOUND('',#184,.T.);
#225=FACE_BOUND('',#185,.T.);
#226=FACE_BOUND('',#186,.T.);
#227=FACE_BOUND('',#187,.T.);
#228=FACE_BOUND('',#188,.T.);
#229=FACE_BOUND('',#189,.T.);
#230=FACE_BOUND('',#190,.T.);
#231=FACE_BOUND('',#191,.T.);
#232=FACE_BOUND('',#192,.T.);
#233=FACE_BOUND('',#193,.T.);
#234=FACE_BOUND('',#194,.T.);
#235=FACE_BOUND('',#195,.T.);
#236=FACE_BOUND('',#196,.T.);
#237=FACE_BOUND('',#197,.T.);
#238=FACE_BOUND('',#198,.T.);
#239=FACE_BOUND('',#199,.T.);
#240=FACE_BOUND('',#200,.T.);
#241=FACE_BOUND('',#201,.T.);
#242=FACE_BOUND('',#202,.T.);
#243=FACE_BOUND('',#203,.T.);
#244=FACE_BOUND('',#204,.T.);
#245=FACE_BOUND('',#205,.T.);
#246=FACE_BOUND('',#206,.T.);
#247=FACE_BOUND('',#207,.T.);
#248=FACE_BOUND('',#208,.T.);
#249=CONICAL_SURFACE('',#282,0.021256,0.785398163397449);
#250=CONICAL_SURFACE('',#304,0.017456,0.380506377112365);
#251=ADVANCED_FACE('',(#209,#210),#249,.T.);
#252=ADVANCED_FACE('',(#211,#212,#213,#214,#215,#216),#22,.F.);
#253=ADVANCED_FACE('',(#217,#218),#12,.T.);
#254=ADVANCED_FACE('',(#219,#220),#23,.T.);
#255=ADVANCED_FACE('',(#221,#222),#13,.F.);
#256=ADVANCED_FACE('',(#223,#224),#250,.F.);
#257=ADVANCED_FACE('',(#225,#226),#14,.F.);
#258=ADVANCED_FACE('',(#227,#228),#15,.F.);
#259=ADVANCED_FACE('',(#229,#230),#24,.T.);
#260=ADVANCED_FACE('',(#231,#232),#16,.F.);
#261=ADVANCED_FACE('',(#233,#234),#17,.F.);
#262=ADVANCED_FACE('',(#235,#236),#25,.T.);
#263=ADVANCED_FACE('',(#237,#238),#18,.F.);
#264=ADVANCED_FACE('',(#239,#240),#19,.F.);
#265=ADVANCED_FACE('',(#241,#242),#26,.T.);
#266=ADVANCED_FACE('',(#243,#244),#20,.F.);
#267=ADVANCED_FACE('',(#245,#246),#21,.F.);
#268=ADVANCED_FACE('',(#247,#248),#27,.T.);
#269=CLOSED_SHELL('',(#251,#252,#253,#254,#255,#256,#257,#258,#259,#260,
#261,#262,#263,#264,#265,#266,#267,#268));
#270=STYLED_ITEM('',(#271),#278);
#271=PRESENTATION_STYLE_ASSIGNMENT((#272));
#272=SURFACE_STYLE_USAGE(.BOTH.,#273);
#273=SURFACE_SIDE_STYLE('',(#274));
#274=SURFACE_STYLE_FILL_AREA(#275);
#275=FILL_AREA_STYLE('',(#276));
#276=FILL_AREA_STYLE_COLOUR('',#277);
#277=COLOUR_RGB('',0.231372549019608,0.380392156862745,0.705882352941177);
#278=MANIFOLD_SOLID_BREP('Bezel',#269);
#279=SHAPE_DEFINITION_REPRESENTATION(#516,#280);
#280=SHAPE_REPRESENTATION('Bezel',(#281),#511);
#281=AXIS2_PLACEMENT_3D('',#413,#325,#326);
#282=AXIS2_PLACEMENT_3D('',#414,#327,#328);
#283=AXIS2_PLACEMENT_3D('',#415,#329,#330);
#284=AXIS2_PLACEMENT_3D('',#417,#331,#332);
#285=AXIS2_PLACEMENT_3D('',#428,#333,#334);
#286=AXIS2_PLACEMENT_3D('',#438,#335,#336);
#287=AXIS2_PLACEMENT_3D('',#448,#337,#338);
#288=AXIS2_PLACEMENT_3D('',#457,#339,#340);
#289=AXIS2_PLACEMENT_3D('',#458,#341,#342);
#290=AXIS2_PLACEMENT_3D('',#460,#343,#344);
#291=AXIS2_PLACEMENT_3D('',#462,#345,#346);
#292=AXIS2_PLACEMENT_3D('',#464,#347,#348);
#293=AXIS2_PLACEMENT_3D('',#466,#349,#350);
#294=AXIS2_PLACEMENT_3D('',#468,#351,#352);
#295=AXIS2_PLACEMENT_3D('',#470,#353,#354);
#296=AXIS2_PLACEMENT_3D('',#471,#355,#356);
#297=AXIS2_PLACEMENT_3D('',#472,#357,#358);
#298=AXIS2_PLACEMENT_3D('',#474,#359,#360);
#299=AXIS2_PLACEMENT_3D('',#475,#361,#362);
#300=AXIS2_PLACEMENT_3D('',#476,#363,#364);
#301=AXIS2_PLACEMENT_3D('',#477,#365,#366);
#302=AXIS2_PLACEMENT_3D('',#478,#367,#368);
#303=AXIS2_PLACEMENT_3D('',#479,#369,#370);
#304=AXIS2_PLACEMENT_3D('',#481,#371,#372);
#305=AXIS2_PLACEMENT_3D('',#482,#373,#374);
#306=AXIS2_PLACEMENT_3D('',#483,#375,#376);
#307=AXIS2_PLACEMENT_3D('',#485,#377,#378);
#308=AXIS2_PLACEMENT_3D('',#486,#379,#380);
#309=AXIS2_PLACEMENT_3D('',#488,#381,#382);
#310=AXIS2_PLACEMENT_3D('',#489,#383,#384);
#311=AXIS2_PLACEMENT_3D('',#490,#385,#386);
#312=AXIS2_PLACEMENT_3D('',#492,#387,#388);
#313=AXIS2_PLACEMENT_3D('',#493,#389,#390);
#314=AXIS2_PLACEMENT_3D('',#495,#391,#392);
#315=AXIS2_PLACEMENT_3D('',#496,#393,#394);
#316=AXIS2_PLACEMENT_3D('',#497,#395,#396);
#317=AXIS2_PLACEMENT_3D('',#499,#397,#398);
#318=AXIS2_PLACEMENT_3D('',#500,#399,#400);
#319=AXIS2_PLACEMENT_3D('',#502,#401,#402);
#320=AXIS2_PLACEMENT_3D('',#503,#403,#404);
#321=AXIS2_PLACEMENT_3D('',#504,#405,#406);
#322=AXIS2_PLACEMENT_3D('',#506,#407,#408);
#323=AXIS2_PLACEMENT_3D('',#507,#409,#410);
#324=AXIS2_PLACEMENT_3D('',#509,#411,#412);
#325=DIRECTION('',(0.,0.,1.));
#326=DIRECTION('',(1.,0.,0.));
#327=DIRECTION('',(-1.08673789965299E-16,0.939692620785909,-0.342020143325668));
#328=DIRECTION('',(-1.,-7.60942069395212E-17,1.08673789965299E-16));
#329=DIRECTION('',(1.08673789965299E-16,-0.939692620785909,0.342020143325668));
#330=DIRECTION('',(1.,7.60942069395212E-17,-1.08673789965299E-16));
#331=DIRECTION('',(1.08673789965299E-16,-0.939692620785909,0.342020143325668));
#332=DIRECTION('',(1.,7.60942069395212E-17,-1.08673789965299E-16));
#333=DIRECTION('',(1.08673789965299E-16,-0.939692620785909,0.342020143325668));
#334=DIRECTION('',(1.,7.60942069395212E-17,-1.08673789965299E-16));
#335=DIRECTION('',(1.08673789965299E-16,-0.939692620785909,0.342020143325668));
#336=DIRECTION('',(1.,7.60942069395212E-17,-1.08673789965299E-16));
#337=DIRECTION('',(1.08673789965299E-16,-0.939692620785909,0.342020143325668));
#338=DIRECTION('',(1.,7.60942069395212E-17,-1.08673789965299E-16));
#339=DIRECTION('',(1.08673789965299E-16,-0.939692620785909,0.342020143325668));
#340=DIRECTION('',(1.,7.60942069395212E-17,-1.08673789965299E-16));
#341=DIRECTION('',(-1.08673789965299E-16,0.939692620785909,-0.342020143325668));
#342=DIRECTION('',(0.707106781186547,0.241844762647975,0.664463024388675));
#343=DIRECTION('',(1.08673789965299E-16,-0.939692620785909,0.342020143325668));
#344=DIRECTION('',(1.,7.60942069395212E-17,-1.08673789965299E-16));
#345=DIRECTION('',(1.08673789965299E-16,-0.939692620785909,0.342020143325668));
#346=DIRECTION('',(1.,7.60942069395212E-17,-1.08673789965299E-16));
#347=DIRECTION('',(1.08673789965299E-16,-0.939692620785909,0.342020143325668));
#348=DIRECTION('',(1.,7.60942069395212E-17,-1.08673789965299E-16));
#349=DIRECTION('',(1.08673789965299E-16,-0.939692620785909,0.342020143325668));
#350=DIRECTION('',(1.,7.60942069395212E-17,-1.08673789965299E-16));
#351=DIRECTION('',(-1.08673789965299E-16,0.939692620785909,-0.342020143325668));
#352=DIRECTION('',(-0.707106781186547,-0.241844762647975,-0.664463024388675));
#353=DIRECTION('',(-1.08673789965299E-16,0.939692620785909,-0.342020143325668));
#354=DIRECTION('',(-1.,-7.60942069395212E-17,1.08673789965299E-16));
#355=DIRECTION('',(1.08673789965299E-16,-0.939692620785909,0.342020143325668));
#356=DIRECTION('',(1.,7.60942069395212E-17,-1.08673789965299E-16));
#357=DIRECTION('',(1.08673789965299E-16,-0.939692620785909,0.342020143325668));
#358=DIRECTION('',(1.,7.60942069395212E-17,-1.08673789965299E-16));
#359=DIRECTION('',(1.08673789965299E-16,-0.939692620785909,0.342020143325668));
#360=DIRECTION('',(1.,7.60942069395212E-17,-1.08673789965299E-16));
#361=DIRECTION('',(1.08673789965299E-16,-0.939692620785909,0.342020143325668));
#362=DIRECTION('',(1.,7.60942069395212E-17,-1.08673789965299E-16));
#363=DIRECTION('',(1.08673789965299E-16,-0.939692620785909,0.342020143325668));
#364=DIRECTION('',(1.,7.60942069395212E-17,-1.08673789965299E-16));
#365=DIRECTION('',(1.08673789965299E-16,-0.939692620785909,0.342020143325668));
#366=DIRECTION('',(1.,7.60942069395212E-17,-1.08673789965299E-16));
#367=DIRECTION('',(-1.08673789965299E-16,0.939692620785909,-0.342020143325668));
#368=DIRECTION('',(-1.,-7.60942069395212E-17,1.08673789965299E-16));
#369=DIRECTION('',(1.08673789965299E-16,-0.939692620785909,0.342020143325668));
#370=DIRECTION('',(1.,7.60942069395212E-17,-1.08673789965299E-16));
#371=DIRECTION('',(1.08673789965299E-16,-0.939692620785909,0.342020143325668));
#372=DIRECTION('',(1.,7.60942069395212E-17,-1.08673789965299E-16));
#373=DIRECTION('',(1.08673789965299E-16,-0.939692620785909,0.342020143325668));
#374=DIRECTION('',(0.707106781186547,0.241844762647975,0.664463024388675));
#375=DIRECTION('',(-1.08673789965299E-16,0.939692620785909,-0.342020143325668));
#376=DIRECTION('',(0.707106781186547,0.241844762647975,0.664463024388675));
#377=DIRECTION('',(-1.08673789965299E-16,0.939692620785909,-0.342020143325668));
#378=DIRECTION('',(-0.707106781186547,-0.241844762647975,-0.664463024388675));
#379=DIRECTION('',(-1.08673789965299E-16,0.939692620785909,-0.342020143325668));
#380=DIRECTION('',(0.707106781186547,0.241844762647975,0.664463024388675));
#381=DIRECTION('',(1.08673789965299E-16,-0.939692620785909,0.342020143325668));
#382=DIRECTION('',(0.707106781186547,0.241844762647975,0.664463024388675));
#383=DIRECTION('',(1.08673789965299E-16,-0.939692620785909,0.342020143325668));
#384=DIRECTION('',(0.707106781186547,-0.241844762647975,-0.664463024388675));
#385=DIRECTION('',(1.08673789965299E-16,-0.939692620785909,0.342020143325668));
#386=DIRECTION('',(0.707106781186547,-0.241844762647975,-0.664463024388675));
#387=DIRECTION('',(-1.08673789965299E-16,0.939692620785909,-0.342020143325668));
#388=DIRECTION('',(-0.707106781186547,0.241844762647975,0.664463024388675));
#389=DIRECTION('',(1.08673789965299E-16,-0.939692620785909,0.342020143325668));
#390=DIRECTION('',(0.707106781186547,-0.241844762647975,-0.664463024388675));
#391=DIRECTION('',(1.08673789965299E-16,-0.939692620785909,0.342020143325668));
#392=DIRECTION('',(0.707106781186547,-0.241844762647975,-0.664463024388675));
#393=DIRECTION('',(1.08673789965299E-16,-0.939692620785909,0.342020143325668));
#394=DIRECTION('',(-0.707106781186547,0.241844762647975,0.664463024388675));
#395=DIRECTION('',(1.08673789965299E-16,-0.939692620785909,0.342020143325668));
#396=DIRECTION('',(-0.707106781186547,0.241844762647975,0.664463024388675));
#397=DIRECTION('',(-1.08673789965299E-16,0.939692620785909,-0.342020143325668));
#398=DIRECTION('',(0.707106781186547,-0.241844762647975,-0.664463024388675));
#399=DIRECTION('',(1.08673789965299E-16,-0.939692620785909,0.342020143325668));
#400=DIRECTION('',(-0.707106781186547,0.241844762647975,0.664463024388675));
#401=DIRECTION('',(1.08673789965299E-16,-0.939692620785909,0.342020143325668));
#402=DIRECTION('',(-0.707106781186547,0.241844762647975,0.664463024388675));
#403=DIRECTION('',(1.08673789965299E-16,-0.939692620785909,0.342020143325668));
#404=DIRECTION('',(-0.707106781186547,-0.241844762647975,-0.664463024388675));
#405=DIRECTION('',(-1.08673789965299E-16,0.939692620785909,-0.342020143325668));
#406=DIRECTION('',(-0.707106781186547,-0.241844762647975,-0.664463024388675));
#407=DIRECTION('',(-1.08673789965299E-16,0.939692620785909,-0.342020143325668));
#408=DIRECTION('',(0.707106781186547,0.241844762647975,0.664463024388675));
#409=DIRECTION('',(-1.08673789965299E-16,0.939692620785909,-0.342020143325668));
#410=DIRECTION('',(-0.707106781186547,-0.241844762647975,-0.664463024388675));
#411=DIRECTION('',(1.08673789965299E-16,-0.939692620785909,0.342020143325668));
#412=DIRECTION('',(-0.707106781186547,-0.241844762647975,-0.664463024388675));
#413=CARTESIAN_POINT('',(0.,0.,0.));
#414=CARTESIAN_POINT('',(2.28271343836657E-18,-0.0197384205896089,0.0246893860212876));
#415=CARTESIAN_POINT('',(2.06536585843598E-18,-0.0178590353480371,0.0240053457346362));
#416=CARTESIAN_POINT('',(0.023256,-0.0178590353480371,0.0240053457346362));
#417=CARTESIAN_POINT('',(2.28271343836657E-18,-0.0197384205896089,0.0246893860212876));
#418=CARTESIAN_POINT('',(0.0162529929643111,-0.0244236940468534,0.0118167029935386));
#419=CARTESIAN_POINT('',(0.0162529929643111,-0.0150531471323646,0.0375620690490365));
#420=CARTESIAN_POINT('',(0.0162529929643111,-0.0244236940468533,0.0118167029935386));
#421=CARTESIAN_POINT('',(0.0163609831391556,-0.0242659870932932,0.0114358525064489));
#422=CARTESIAN_POINT('',(0.0164557652864647,-0.0240160598107954,0.0106155515492033));
#423=CARTESIAN_POINT('',(0.0158913023074242,-0.0240450270659244,0.00935475078691454));
#424=CARTESIAN_POINT('',(0.0146947608558179,-0.0246163820293447,0.00895226076480323));
#425=CARTESIAN_POINT('',(0.0140034742718632,-0.0250720214151921,0.00921939579597629));
#426=CARTESIAN_POINT('',(0.0136988231502584,-0.0252972715727337,0.00941656846703915));
#427=CARTESIAN_POINT('',(0.0136988231502584,-0.0252972715727337,0.00941656846703916));
#428=CARTESIAN_POINT('',(2.28271343836657E-18,-0.0197384205896089,0.0246893860212876));
#429=CARTESIAN_POINT('',(-0.0136988231502584,-0.0252972715727337,0.00941656846703917));
#430=CARTESIAN_POINT('',(-0.0136988231502584,-0.0252972715727337,0.00941656846703915));
#431=CARTESIAN_POINT('',(-0.0140027665877392,-0.0250725446562016,0.00921985381486773));
#432=CARTESIAN_POINT('',(-0.0146881171791057,-0.0246206310698237,0.0089545056665718));
#433=CARTESIAN_POINT('',(-0.0158827897364606,-0.0240479385366655,0.00934675158679613));
#434=CARTESIAN_POINT('',(-0.0164564215466574,-0.0240138585873726,0.0106076803163138));
#435=CARTESIAN_POINT('',(-0.016361234577163,-0.0242656198976459,0.0114349657564485));
#436=CARTESIAN_POINT('',(-0.0162529929643111,-0.0244236940468533,0.0118167029935386));
#437=CARTESIAN_POINT('',(-0.0162529929643111,-0.0244236940468534,0.0118167029935386));
#438=CARTESIAN_POINT('',(2.28271343836657E-18,-0.0197384205896089,0.0246893860212876));
#439=CARTESIAN_POINT('',(-0.0162529929643111,-0.0150531471323646,0.0375620690490365));
#440=CARTESIAN_POINT('',(-0.0162529929643111,-0.0150531471323646,0.0375620690490365));
#441=CARTESIAN_POINT('',(-0.0163609831391556,-0.0146875306227043,0.0377524453726209));
#442=CARTESIAN_POINT('',(-0.0164557652864647,-0.0139687959252315,0.0382201822020919));
#443=CARTESIAN_POINT('',(-0.0158913023074242,-0.0131805590217731,0.0392046314126069));
#444=CARTESIAN_POINT('',(-0.0146947608558179,-0.013359526717314,0.0398802165486755));
#445=CARTESIAN_POINT('',(-0.0140034742718632,-0.0138802778250598,0.0399684585941909));
#446=CARTESIAN_POINT('',(-0.0136988231502584,-0.0141795696064842,0.0399622035755359));
#447=CARTESIAN_POINT('',(-0.0136988231502584,-0.0141795696064842,0.039962203575536));
#448=CARTESIAN_POINT('',(2.28271343836657E-18,-0.0197384205896089,0.0246893860212876));
#449=CARTESIAN_POINT('',(0.0136988231502584,-0.0141795696064842,0.039962203575536));
#450=CARTESIAN_POINT('',(0.0136988231502584,-0.0141795696064842,0.0399622035755359));
#451=CARTESIAN_POINT('',(0.0140027665877392,-0.0138809730597959,0.039968444064202));
#452=CARTESIAN_POINT('',(0.0146881171791057,-0.0133642246662033,0.0398812280847233));
#453=CARTESIAN_POINT('',(0.0158827897364606,-0.013177647551032,0.0392126306127253));
#454=CARTESIAN_POINT('',(0.0164564215466574,-0.0139620501592861,0.038224796997165));
#455=CARTESIAN_POINT('',(0.016361234577163,-0.014686679342606,0.0377528886337187));
#456=CARTESIAN_POINT('',(0.0162529929643111,-0.0150531471323646,0.0375620690490365));
#457=CARTESIAN_POINT('',(1.84801827850538E-18,-0.0159796501064653,0.0233213054479849));
#458=CARTESIAN_POINT('',(-0.0143684097937107,-0.0110653645294585,0.0368231941035627));
#459=CARTESIAN_POINT('',(-0.0136613030125241,-0.0108235197668105,0.0374876571279514));
#460=CARTESIAN_POINT('',(-0.0143684097937107,-0.0208939356834722,0.00981941679240702));
#461=CARTESIAN_POINT('',(-0.0133684097937107,-0.0208939356834722,0.00981941679240702));
#462=CARTESIAN_POINT('',(1.84801827850538E-18,-0.0159796501064653,0.0233213054479849));
#463=CARTESIAN_POINT('',(0.016456,-0.0159796501064653,0.0233213054479849));
#464=CARTESIAN_POINT('',(1.84801827850538E-18,-0.0159796501064653,0.0233213054479849));
#465=CARTESIAN_POINT('',(0.023256,-0.0159796501064653,0.0233213054479849));
#466=CARTESIAN_POINT('',(0.0143684097937107,-0.0110653645294585,0.0368231941035627));
#467=CARTESIAN_POINT('',(0.0153684097937107,-0.0110653645294585,0.0368231941035627));
#468=CARTESIAN_POINT('',(0.0143684097937107,-0.0208939356834722,0.00981941679240702));
#469=CARTESIAN_POINT('',(0.0136613030125241,-0.0211357804461202,0.00915495376801835));
#470=CARTESIAN_POINT('',(2.28271343836657E-18,-0.0197384205896089,0.0246893860212876));
#471=CARTESIAN_POINT('',(2.28271343836657E-18,-0.0197384205896089,0.0246893860212876));
#472=CARTESIAN_POINT('',(2.28271343836657E-18,-0.0197384205896089,0.0246893860212876));
#473=CARTESIAN_POINT('',(0.017456,-0.0197384205896089,0.0246893860212875));
#474=CARTESIAN_POINT('',(0.0143684097937107,-0.0246527061666158,0.0111874973657097));
#475=CARTESIAN_POINT('',(0.0143684097937107,-0.0148241350126021,0.0381912746768654));
#476=CARTESIAN_POINT('',(-0.0143684097937107,-0.0148241350126021,0.0381912746768654));
#477=CARTESIAN_POINT('',(-0.0143684097937107,-0.0246527061666158,0.0111874973657097));
#478=CARTESIAN_POINT('',(2.98909307314102E-18,-0.0258464226247174,0.0269125169529044));
#479=CARTESIAN_POINT('',(2.01102896345333E-18,-0.0173891890376442,0.0238343356629734));
#480=CARTESIAN_POINT('',(0.016456,-0.0173891890376442,0.0238343356629734));
#481=CARTESIAN_POINT('',(2.28271343836657E-18,-0.0197384205896089,0.0246893860212876));
#482=CARTESIAN_POINT('',(-0.0143684097937107,-0.0110653645294585,0.0368231941035627));
#483=CARTESIAN_POINT('',(-0.0143684097937107,-0.0134145960814233,0.0376782444618769));
#484=CARTESIAN_POINT('',(-0.0136613030125241,-0.0131727513187753,0.0383427074862656));
#485=CARTESIAN_POINT('',(-0.0143684097937107,-0.0181130591853528,0.0393883451785053));
#486=CARTESIAN_POINT('',(-0.0143684097937107,-0.0134145960814233,0.0376782444618769));
#487=CARTESIAN_POINT('',(-0.0129541962313376,-0.0129309065561273,0.0390071705106542));
#488=CARTESIAN_POINT('',(-0.0143684097937107,-0.0134145960814233,0.0376782444618769));
#489=CARTESIAN_POINT('',(-0.0143684097937107,-0.0208939356834722,0.00981941679240702));
#490=CARTESIAN_POINT('',(-0.0143684097937107,-0.0232431672354369,0.0106744671507212));
#491=CARTESIAN_POINT('',(-0.0136613030125241,-0.0234850119980849,0.0100100041263325));
#492=CARTESIAN_POINT('',(-0.0143684097937107,-0.0279416303393665,0.0123845678673495));
#493=CARTESIAN_POINT('',(-0.0143684097937107,-0.0232431672354369,0.0106744671507212));
#494=CARTESIAN_POINT('',(-0.0129541962313376,-0.0237268567607329,0.00934554110194385));
#495=CARTESIAN_POINT('',(-0.0143684097937107,-0.0232431672354369,0.0106744671507212));
#496=CARTESIAN_POINT('',(0.0143684097937107,-0.0110653645294585,0.0368231941035627));
#497=CARTESIAN_POINT('',(0.0143684097937107,-0.0134145960814233,0.0376782444618769));
#498=CARTESIAN_POINT('',(0.0136613030125241,-0.0131727513187753,0.0383427074862656));
#499=CARTESIAN_POINT('',(0.0143684097937107,-0.0181130591853528,0.0393883451785053));
#500=CARTESIAN_POINT('',(0.0143684097937107,-0.0134145960814233,0.0376782444618769));
#501=CARTESIAN_POINT('',(0.0129541962313376,-0.0129309065561273,0.0390071705106542));
#502=CARTESIAN_POINT('',(0.0143684097937107,-0.0134145960814233,0.0376782444618769));
#503=CARTESIAN_POINT('',(0.0143684097937107,-0.0208939356834722,0.00981941679240702));
#504=CARTESIAN_POINT('',(0.0143684097937107,-0.0232431672354369,0.0106744671507212));
#505=CARTESIAN_POINT('',(0.0136613030125241,-0.0234850119980849,0.0100100041263325));
#506=CARTESIAN_POINT('',(0.0143684097937107,-0.0279416303393665,0.0123845678673495));
#507=CARTESIAN_POINT('',(0.0143684097937107,-0.0232431672354369,0.0106744671507212));
#508=CARTESIAN_POINT('',(0.0129541962313376,-0.0237268567607329,0.00934554110194385));
#509=CARTESIAN_POINT('',(0.0143684097937107,-0.0232431672354369,0.0106744671507212));
#510=MECHANICAL_DESIGN_GEOMETRIC_PRESENTATION_REPRESENTATION('',(#270),
#511);
#511=(
GEOMETRIC_REPRESENTATION_CONTEXT(3)
GLOBAL_UNCERTAINTY_ASSIGNED_CONTEXT((#512))
GLOBAL_UNIT_ASSIGNED_CONTEXT((#515,#514,#513))
REPRESENTATION_CONTEXT('Bezel','TOP_LEVEL_ASSEMBLY_PART')
);
#512=UNCERTAINTY_MEASURE_WITH_UNIT(LENGTH_MEASURE(2.E-5),#515,
'DISTANCE_ACCURACY_VALUE','Maximum Tolerance applied to model');
#513=(
NAMED_UNIT(*)
SI_UNIT($,.STERADIAN.)
SOLID_ANGLE_UNIT()
);
#514=(
NAMED_UNIT(*)
PLANE_ANGLE_UNIT()
SI_UNIT($,.RADIAN.)
);
#515=(
LENGTH_UNIT()
NAMED_UNIT(*)
SI_UNIT($,.METRE.)
);
#516=PRODUCT_DEFINITION_SHAPE('','',#517);
#517=PRODUCT_DEFINITION('','',#519,#518);
#518=PRODUCT_DEFINITION_CONTEXT('',#525,'design');
#519=PRODUCT_DEFINITION_FORMATION_WITH_SPECIFIED_SOURCE('','',#521,
 .NOT_KNOWN.);
#520=PRODUCT_RELATED_PRODUCT_CATEGORY('','',(#521));
#521=PRODUCT('Bezel','Bezel','Bezel',(#523));
#522=PRODUCT_CATEGORY('','');
#523=PRODUCT_CONTEXT('',#525,'mechanical');
#524=APPLICATION_PROTOCOL_DEFINITION('international standard',
'ap242_managed_model_based_3d_engineering',2020,#525);
#525=APPLICATION_CONTEXT('managed model based 3d engineering');
ENDSEC;
END-ISO-10303-21;
